<?xml version="1.0" encoding="UTF-8"?>
<svg enable-background="new 0 0 507.349 417.889" viewBox="0 0 507.349 417.889" xmlns="http://www.w3.org/2000/svg">
 <path d="m60.192,302.473c0-19.584-13.464-35.426-30.096-35.426-16.596,0-30.06,15.842-30.06,35.426-.036,3.023-.036,5.687.396,8.134 .324,2.412.9,4.393 1.728,6.48 .612,2.016 1.8,3.889 2.592,5.615 .792,1.656 1.8,3.205 1.908,4.5 0,1.189-1.044,2.053-1.764,3.133-.828,1.043-2.16,1.871-2.88,3.061-.828,1.043-1.224,2.088-1.584,3.563-.324,1.332-.468,3.24-.432,4.752-.072,1.369-.072,2.629 0,3.637h3.816v-3.385c-.036-.646-.144-1.188.072-1.906 .072-.828.144-1.297.756-2.232 .612-1.045 1.548-2.449 2.664-3.24 .9-.863 1.98-1.477 3.384-1.439 1.44-.072 3.312.936 5.076,1.512 1.62.576 3.096,1.188 4.572,1.836 1.404.539 2.304.791 3.96,1.152 1.584.215 3.564.252 5.796.252s4.176-.037 5.832-.252c1.692-.361 2.412-.613 3.96-1.152 1.44-.648 2.916-1.26 4.572-1.836 1.62-.576 3.492-1.584 5.04-1.512 1.332-.037 2.376.576 3.42,1.439 1.044.791 1.98,2.195 2.664,3.24 .504.936.576,1.404.756,2.232 .18.719.072,1.26.072,1.906v3.385h3.816c.036-1.008.036-2.268 0-3.637-.072-1.512-.216-3.42-.432-4.752-.324-1.475-.9-2.52-1.584-3.563-.828-1.189-2.16-2.018-2.88-3.061-.864-1.08-1.764-1.943-1.728-3.133 0-1.295 1.08-2.844 1.872-4.5 .684-1.727 1.872-3.6 2.592-5.615 .72-2.088 1.296-4.068 1.728-6.48 .396-2.447.396-5.111.396-8.134z" fill="#c37f33" fill-rule="evenodd"/>
 <path d="m30.096,274.248c-2.88,0-5.868,1.008-8.424,2.195-2.556,1.08-5.256,2.736-6.984,4.285-1.908,1.402-3.816,3.24-3.924,4.391-.108,1.008 1.044,2.592 3.312,2.232 2.196-.504 5.652-3.564 9.54-4.32 3.816-.719 9.072-.719 12.996,0 3.816.756 7.272,3.816 9.54,4.32 2.16.359 3.312-1.225 3.312-2.232-.18-1.15-2.088-2.988-3.924-4.391-1.8-1.549-4.5-3.205-6.984-4.285-2.628-1.187-5.724-2.195-8.46-2.195z" fill="#d18836" fill-rule="evenodd"/>
 <path d="m30.096,331.561c-2.88-.145-5.868-1.045-8.424-2.16-2.556-1.189-5.256-2.809-6.984-4.285-1.908-1.547-3.816-3.348-3.924-4.428-.108-1.115 1.044-2.627 3.312-2.195 2.196.432 5.652,3.383 9.54,4.283 3.816.684 9.072.684 12.996,0 3.816-.9 7.272-3.852 9.54-4.283 2.16-.432 3.312,1.08 3.312,2.195-.18,1.08-2.088,2.881-3.924,4.428-1.8,1.477-4.5,3.096-6.984,4.285-2.628,1.115-5.724,2.015-8.46,2.16z" fill="#b0722e" fill-rule="evenodd"/>
 <path d="m0 345.35v72.541l3.816-4.213v-68.328h-3.816z" fill="#808080" fill-rule="evenodd"/>
 <path d="m56.412 345.35v72.541l3.816-4.213v-68.328h-3.816z" fill="#808080" fill-rule="evenodd"/>
 <path d="m150.156,302.473c0-19.584-13.464-35.426-30.096-35.426-16.596,0-30.06,15.842-30.06,35.426-.036,3.023-.036,5.688.396,8.135 .324,2.412.9,4.393 1.728,6.48 .684,2.016 1.728,3.889 2.556,5.615 .792,1.693 1.8,3.133 1.908,4.465-.072,1.152-.972,2.16-1.728,3.168-.792,1.043-2.232,1.871-2.916,3.061-.792,1.043-1.26,2.088-1.548,3.563-.396,1.332-.36,3.24-.432,4.752-.072,1.369-.072,2.629 0,3.637h3.816v-3.385c-.036-.646-.144-1.188.072-1.906 .072-.828.144-1.297.756-2.232 .612-1.045 1.548-2.449 2.664-3.24 .9-.863 1.98-1.477 3.384-1.439 1.404-.072 3.42.936 5.076,1.512 1.584.576 3.096,1.188 4.536,1.836 1.404.539 2.268.791 3.996,1.152 1.584.215 3.564.252 5.796.252 2.196,0 4.176-.037 5.796-.252 1.62-.361 2.484-.613 3.996-1.152 1.44-.648 2.916-1.26 4.572-1.836 1.62-.576 3.492-1.584 5.04-1.512 1.332-.037 2.376.576 3.42,1.439 1.08.791 1.908,2.195 2.628,3.24 .504.936.576,1.404.756,2.232 .108.719.144,1.26.108,1.906v3.385h3.816c.036-1.008.036-2.268 0-3.637-.072-1.512-.216-3.42-.432-4.752-.324-1.475-.9-2.52-1.584-3.563-.828-1.189-2.16-2.018-2.88-3.061-.828-1.008-1.836-2.016-1.764-3.168 .036-1.332 1.044-2.771 1.908-4.465 .684-1.727 1.872-3.6 2.592-5.615 .72-2.088 1.296-4.068 1.728-6.48 .36-2.447.432-5.111.36-8.135h.036z" fill="#404040" fill-rule="evenodd"/>
 <path d="m120.06,274.248c-2.844,0-5.94,1.008-8.46,2.195-2.556,1.08-5.256,2.736-6.984,4.285-1.98,1.402-3.744,3.24-3.888,4.391-.072,1.008.972,2.592 3.276,2.232 2.16-.504 5.724-3.564 9.576-4.32 3.816-.719 9.072-.719 12.996,0 3.816.756 7.272,3.816 9.54,4.32 2.16.359 3.312-1.225 3.312-2.232-.18-1.15-2.088-2.988-3.924-4.391-1.8-1.549-4.5-3.205-6.984-4.285-2.628-1.187-5.724-2.195-8.46-2.195z" fill="#616161" fill-rule="evenodd"/>
 <path d="m120.06,331.561c-2.844-.145-5.94-1.045-8.46-2.16-2.556-1.189-5.256-2.809-6.984-4.285-1.98-1.547-3.744-3.348-3.888-4.428-.072-1.115.972-2.627 3.276-2.195 2.16.432 5.724,3.383 9.576,4.283 3.816.684 9.072.684 12.996,0 3.816-.9 7.272-3.852 9.54-4.283 2.16-.432 3.312,1.08 3.312,2.195-.18,1.08-2.088,2.881-3.924,4.428-1.8,1.477-4.5,3.096-6.984,4.285-2.628,1.115-5.724,2.015-8.46,2.16z" fill-rule="evenodd"/>
 <path d="m89.964 345.35v72.541l3.816-4.213v-68.328h-3.816z" fill="#808080" fill-rule="evenodd"/>
 <path d="m146.38 345.35v72.541l3.816-4.213v-68.328h-3.816z" fill="#808080" fill-rule="evenodd"/>
 <path d="m205.56 244.26c-1.98 0-3.6 2.088-3.6 4.68v8.424c0 2.592 1.62 4.68 3.6 4.68 1.944 0 3.564-2.088 3.564-4.68v-8.424c0-2.592-1.62-4.68-3.564-4.68z" fill="#21619d" fill-rule="evenodd"/>
 <path d="m218.74 140.28c32.729 0 59.292 25.692 59.292 57.348s-26.563 57.349-59.292 57.349-59.292-25.693-59.292-57.349 26.563-57.348 59.292-57.348" fill="#21619d" fill-rule="evenodd"/>
 <path d="m218.62 141.63c31.895 0 57.78 25.031 57.78 55.872s-25.886 55.871-57.78 55.871-57.78-25.029-57.78-55.871 25.886-55.872 57.78-55.872" fill="#1c7ab5" fill-rule="evenodd"/>
 <path d="m161.712,213.299 1.836,1.225h110.052l2.159-.936c-.216.756-.611,1.619-.792,2.305-.287.646-.54,1.402-.756,1.979l-2.268,1.045h-106.56l-1.98-.9c-.324-.576-.684-1.188-.936-1.98-.323-.83-.575-1.693-.755-2.738z" fill="#f7f619" fill-rule="evenodd"/>
 <path d="m203.184,252.18-.144,6.229c.324.539.828.9 1.656,1.08 .828.072 1.8-.037 3.204-.324l.324-5.617c-1.656-.433-3.348-.9-5.04-1.368z" fill="#21619d" fill-rule="evenodd"/>
 <path d="m231.34 244.26c-1.98 0-3.564 2.088-3.564 4.68v8.424c0 2.592 1.584 4.68 3.564 4.68v-17.784z" fill="#21619d" fill-rule="evenodd"/>
 <path d="m231.34 262.04c1.98 0 3.564-2.088 3.564-4.68v-8.424c0-2.592-1.584-4.68-3.564-4.68v17.784z" fill="#1c7ab5" fill-rule="evenodd"/>
 <path d="m231.336,253.152c-.036-4.105-.036-7.021 0-8.893-.036-1.98-.036-2.557 0-2.268-.108-.936-.108-1.836-.396-2.701-.324-.898-.36-1.764-1.08-2.592-.792-.936-2.232-2.088-3.492-2.627-1.296-.648-2.772-.865-4.14-.936-1.476-.252-3.528-.252-4.356.143-.936.289-1.62,1.369-1.08,2.268 .324.865 2.376,2.053 3.672,3.025 1.224.971 3.168,1.691 4.032,2.303 .792.434.432,0 1.008.504 .54.396 1.548,1.225 2.052,2.09 .36.826.108,1.836.216,2.879-.036.9-.036,1.584 0,2.592-.036.865-.036,1.801 0,2.809l3.564,1.404z" fill="#21619d" fill-rule="evenodd"/>
 <path d="m204.05 261.68v156.2l2.664-9.037v-147.17h-2.664z" fill="#808080" fill-rule="evenodd"/>
 <path d="m230.11 261.68v156.2l2.664-9.037v-147.17h-2.664z" fill="#808080" fill-rule="evenodd"/>
 <path d="m299.484,284.904v-99.937c0-3.708 2.988-6.696 6.696-6.696h52.199c3.708,0 6.732,2.988 6.732,6.696v99.937l-.036,13.068c.072.504 0,1.043-.216,1.764-.216.648-.685,1.475-1.26,2.34-1.225.9-1.801,1.908-1.872,2.627-.072.828.432,1.369 1.512,2.018 .684.611 1.116,1.15 1.44,2.016 .287.828.468,1.584.396,2.664h.036c0,3.707-3.024,6.73-6.732,6.73h-52.199c-3.708,0-6.696-3.023-6.696-6.73-.108-1.08.072-1.836.396-2.664 .288-.865.721-1.404 1.44-2.016 1.08-.648 1.584-1.189 1.512-2.018-.072-.719-.756-1.727-1.908-2.627-.54-.865-1.044-1.691-1.224-2.34-.252-.721-.324-1.26-.216-1.764v-13.068z" fill-rule="evenodd"/>
 <path d="m346.356,318.131h13.212c3.708,0 6.731-3.023 6.731-6.73h-.035c0-1.08-.145-1.836-.433-2.664-.288-.865-.864-1.404-1.439-2.016-1.116-.648-1.62-1.189-1.513-2.018 .036-.719.721-1.727 1.908-2.627 .576-.865 1.044-1.691 1.26-2.34 .217-.721.288-1.26.217-1.764l.035-13.068v-99.937c0-3.708-3.023-6.696-6.731-6.696h-13.212v139.86z" fill="#404040" fill-rule="evenodd"/>
 <path d="m342.04 178.34h10.152v139.75h-10.152v-139.75z" fill="#212121" fill-rule="evenodd"/>
 <path d="m312.98 178.27h22.824v139.82h-22.824v-139.82z" fill="#999e9e" fill-rule="evenodd"/>
 <path d="m312.98 194.62 11.412 8.856 11.412-9.036v5.544l-11.412 9.036-11.412-8.856v-5.544z" fill-rule="evenodd" stroke="#000" stroke-miterlimit="10" stroke-width=".036"/>
 <path d="m312.98 221.47 11.412 8.855 11.412-9.037v5.51l-11.412 9.07-11.412-8.891v-5.507z" fill-rule="evenodd" stroke="#000" stroke-miterlimit="10" stroke-width=".036"/>
 <path d="m312.98 248.33 11.412 8.855 11.412-9.035v5.508l-11.412 9.035-11.412-8.855v-5.508z" fill-rule="evenodd" stroke="#000" stroke-miterlimit="10" stroke-width=".036"/>
 <path d="m312.98 275.15 11.412 8.891 11.412-9.07v5.543l-11.412 9.035-11.412-8.855v-5.544z" fill-rule="evenodd" stroke="#000" stroke-miterlimit="10" stroke-width=".036"/>
 <path d="m313.6 318.17v98.568l3.815-5.689v-92.879h-3.815z" fill="#808080" fill-rule="evenodd"/>
 <path d="m348.3 317.41v98.568l3.816-5.725v-92.844h-3.816z" fill="#808080" fill-rule="evenodd"/>
 <path d="m390.601,186.372v-174.636c0-6.48 5.256-11.736 11.735-11.736h91.225c6.479,0 11.735,5.256 11.735,11.736v174.636l-.036,22.861c.181.828 0,1.799-.396,3.059-.468,1.189-1.188,2.557-2.16,4.105-2.088,1.727-3.24,3.203-3.312,4.572-.108,1.367.72,2.447 2.628,3.527 1.08.936 1.907,2.16 2.483,3.527 .504,1.404.756,2.809.756,4.645h.036c0,6.48-5.256,11.736-11.735,11.736h-91.225c-6.479,0-11.735-5.256-11.735-11.736-.036-1.836.216-3.24.756-4.645 .54-1.367 1.368-2.592 2.483-3.527 1.872-1.08 2.7-2.16 2.628-3.527-.107-1.369-1.26-2.846-3.312-4.572-1.008-1.549-1.729-2.916-2.16-4.105-.432-1.26-.612-2.23-.396-3.059v-22.861z" fill-rule="evenodd"/>
 <path d="m472.536,244.404h23.076c6.479,0 11.736-5.256 11.736-11.736h-.036c0-1.836-.252-3.24-.756-4.645-.576-1.367-1.404-2.592-2.484-3.527-1.908-1.08-2.736-2.16-2.628-3.527 .072-1.369 1.224-2.846 3.312-4.572 .973-1.549 1.692-2.916 2.16-4.105 .396-1.26.576-2.23.396-3.059l.036-22.861v-174.636c0-6.48-5.257-11.736-11.736-11.736h-23.076v244.404z" fill="#404040" fill-rule="evenodd"/>
 <path d="m464.977.144h17.748v244.26h-17.748v-244.26z" fill="#212121" fill-rule="evenodd"/>
 <path d="m414.22 0.036h39.853v244.37h-39.853v-244.37z" fill="#999e9e" fill-rule="evenodd"/>
 <path d="m419.15 122.33 14.364 10.008 14.363-10.224v6.264l-14.362 10.224-14.364-10.008v-6.264z" fill-rule="evenodd" stroke="#000" stroke-miterlimit="10" stroke-width=".036"/>
 <path d="m419.15 122.33v-32.184h28.728v31.968l-3.852 3.636v-31.716h-21.313v33.624l-3.563-5.328z" fill-rule="evenodd" stroke="#000" stroke-miterlimit="10" stroke-width=".036"/>
 <path d="m415.3 244.51v172.22l6.66-9.936v-162.29h-6.66z" fill="#808080" fill-rule="evenodd"/>
 <path d="m475.96 243.14v172.22l6.66-9.936v-162.29h-6.66z" fill="#808080" fill-rule="evenodd"/>
</svg>
