<svg xmlns:dc="http://purl.org/dc/elements/1.1/" xmlns:cc="http://creativecommons.org/ns#" xmlns:rdf="http://www.w3.org/1999/02/22-rdf-syntax-ns#" xmlns:svg="http://www.w3.org/2000/svg" xmlns="http://www.w3.org/2000/svg" xmlns:xlink="http://www.w3.org/1999/xlink" xmlns:sodipodi="http://sodipodi.sourceforge.net/DTD/sodipodi-0.dtd" xmlns:inkscape="http://www.inkscape.org/namespaces/inkscape" width="150" height="425" id="svg2" sodipodi:version="0.32" inkscape:version="0.45+0.46pre2+devel" sodipodi:docname="Electrolytic.svg" inkscape:output_extension="org.inkscape.output.svg.inkscape" version="1.0">
  <defs id="defs4">
    <inkscape:perspective sodipodi:type="inkscape:persp3d" inkscape:vp_x="-50 : 600 : 1" inkscape:vp_y="0 : 1000 : 0" inkscape:vp_z="700 : 600 : 1" inkscape:persp3d-origin="300 : 400 : 1" id="perspective10"/>
    <inkscape:perspective id="perspective2416" inkscape:persp3d-origin="300 : 400 : 1" inkscape:vp_z="700 : 600 : 1" inkscape:vp_y="0 : 1000 : 0" inkscape:vp_x="-50 : 600 : 1" sodipodi:type="inkscape:persp3d"/>
    <inkscape:perspective sodipodi:type="inkscape:persp3d" inkscape:vp_x="-50 : 600 : 1" inkscape:vp_y="0 : 1000 : 0" inkscape:vp_z="700 : 600 : 1" inkscape:persp3d-origin="300 : 400 : 1" id="perspective4150"/>
    <inkscape:perspective sodipodi:type="inkscape:persp3d" inkscape:vp_x="-50 : 600 : 1" inkscape:vp_y="0 : 1000 : 0" inkscape:vp_z="700 : 600 : 1" inkscape:persp3d-origin="300 : 400 : 1" id="perspective3425"/>
    <inkscape:perspective id="perspective5015" inkscape:vp_z="700 : 600 : 1" inkscape:vp_x="-50 : 600 : 1" sodipodi:type="inkscape:persp3d" inkscape:vp_y="0 : 1000 : 0" inkscape:persp3d-origin="300 : 400 : 1"/>
    <inkscape:perspective id="perspective5013" inkscape:vp_z="700 : 600 : 1" inkscape:vp_x="-50 : 600 : 1" sodipodi:type="inkscape:persp3d" inkscape:vp_y="0 : 1000 : 0" inkscape:persp3d-origin="300 : 400 : 1"/>
    <defs id="defs3417">
      <path id="XMLID_154_" d="M 318.819,414.016 C 318.797,422.115 324.13,430.226 334.808,436.391 L 334.495,546.438 C 323.817,540.273 318.483,532.162 318.507,524.063 C 318.602,491.049 318.726,447.031 318.819,414.016 z"/>
    </defs>
    <clipPath id="XMLID_171_">
      <use xlink:href="#XMLID_154_" id="use3421" x="0" y="0" width="595.27502" height="841.89001"/>
    </clipPath>
    <defs id="defs3409">
      <path id="XMLID_152_" d="M 426.956,524.374 C 426.934,532.369 421.69,540.352 411.217,546.438 C 390.135,558.69 355.717,558.69 334.496,546.438 L 334.809,436.391 C 356.03,448.643 390.447,448.643 411.53,436.391 C 422.004,430.304 427.246,422.322 427.268,414.327 C 427.164,451.01 427.06,487.69 426.956,524.374 z"/>
    </defs>
    <clipPath id="XMLID_170_">
      <use xlink:href="#XMLID_152_" id="use3413" x="0" y="0" width="595.27502" height="841.89001"/>
    </clipPath>
    <defs id="defs3401">
      <path id="XMLID_150_" d="M 427.268,414.327 C 427.164,451.011 427.06,487.69 426.956,524.374 C 426.978,516.275 421.645,508.164 410.967,501.999 C 389.746,489.747 355.329,489.747 334.246,501.999 C 323.773,508.086 318.53,516.068 318.508,524.063 L 318.82,414.016 C 318.842,406.021 324.086,398.038 334.559,391.952 C 355.641,379.701 390.059,379.7 411.279,391.952 C 421.957,398.117 427.291,406.228 427.268,414.327 z"/>
    </defs>
    <clipPath id="XMLID_169_">
      <use xlink:href="#XMLID_150_" id="use3405" x="0" y="0" width="595.27502" height="841.89001"/>
    </clipPath>
    <defs id="defs3393">
      <path id="XMLID_148_" d="M 313.821,414.001 C 313.846,405.27 319.572,396.551 331.011,389.903 C 354.037,376.522 391.625,376.522 414.802,389.903 L 414.49,499.95 C 391.312,486.569 353.724,486.569 330.698,499.95 C 319.26,506.597 313.533,515.316 313.509,524.048 C 313.613,487.365 313.718,450.685 313.821,414.001 z"/>
    </defs>
    <clipPath id="XMLID_168_">
      <use xlink:href="#XMLID_148_" id="use3397" x="0" y="0" width="595.27502" height="841.89001"/>
    </clipPath>
    <defs id="defs3385">
      <path id="XMLID_146_" d="M 431.954,524.388 C 431.979,515.542 426.154,506.684 414.491,499.95 L 414.803,389.903 C 426.466,396.636 432.291,405.495 432.266,414.341 C 432.162,451.025 432.058,487.705 431.954,524.388 z"/>
    </defs>
    <clipPath id="XMLID_167_">
      <use xlink:href="#XMLID_146_" id="use3389" x="0" y="0" width="595.27502" height="841.89001"/>
    </clipPath>
    <defs id="defs3327">
      <path id="XMLID_144_" d="M 432.266,414.341 C 432.162,451.025 432.058,487.704 431.954,524.388 C 431.929,533.119 426.203,541.838 414.764,548.486 C 391.738,561.867 354.15,561.868 330.973,548.486 C 319.31,541.753 313.485,532.894 313.51,524.048 C 313.614,487.364 313.718,450.685 313.822,414.001 C 313.797,422.847 319.622,431.705 331.285,438.439 C 354.463,451.821 392.051,451.82 415.077,438.439 C 426.515,431.792 432.241,423.073 432.266,414.341 z"/>
    </defs>
    <clipPath id="XMLID_166_">
      <use xlink:href="#XMLID_144_" id="use3331" x="0" y="0" width="595.27502" height="841.89001"/>
    </clipPath>
    <inkscape:perspective id="perspective3720" inkscape:persp3d-origin="300 : 400 : 1" inkscape:vp_z="700 : 600 : 1" inkscape:vp_y="0 : 1000 : 0" inkscape:vp_x="-50 : 600 : 1" sodipodi:type="inkscape:persp3d"/>
    <inkscape:perspective id="perspective3734" inkscape:persp3d-origin="300 : 400 : 1" inkscape:vp_z="700 : 600 : 1" inkscape:vp_y="0 : 1000 : 0" inkscape:vp_x="-50 : 600 : 1" sodipodi:type="inkscape:persp3d"/>
    <inkscape:perspective id="perspective4984" inkscape:persp3d-origin="300 : 400 : 1" inkscape:vp_z="700 : 600 : 1" inkscape:vp_y="0 : 1000 : 0" inkscape:vp_x="-50 : 600 : 1" sodipodi:type="inkscape:persp3d"/>
  </defs>
  <g inkscape:label="Layer 1" inkscape:groupmode="layer" id="layer1" transform="translate(-41.362715,-35.868257)">
    <g transform="matrix(0,1.25,1.25,0,-126.88836,198.99742)" inkscape:label="Electrolytic" id="g2418">
      <g id="g5019" inkscape:label="Layer 1" transform="matrix(0,1,1,0,-492.93551,-155.39914)">
        <g transform="translate(282.43262,355.01478)" id="g4181" style="overflow:visible">
          <g id="XMLID_1_" transform="translate(-305.47012,-354.9676)">
            <g id="g3044">
              <path d="M 429.737,565.105 C 429.647,567.055 429.368,568.915 428.887,570.675 L 428.837,570.654 C 422.347,591.294 389.807,598.654 370.937,597.804 C 361.868,597.764 350.057,595.894 339.708,591.583 C 339.697,588.713 339.668,581.063 339.718,579.373 C 339.718,579.344 339.718,579.313 339.728,579.283 C 351.398,584.113 365.068,585.933 375.058,585.503 C 393.048,585.474 422.579,577.903 428.838,558.424 L 429.737,558.424 L 429.737,565.105 L 429.737,565.105 z" id="path3046" style="fill:#3a3a3a"/>
              <path d="M 429.737,554.675 L 429.737,558.425 L 428.838,558.425 C 422.578,577.904 393.048,585.475 375.058,585.504 C 365.068,585.935 351.398,584.114 339.728,579.284 C 339.798,577.364 340.079,577.024 340.548,575.364 C 349.358,579.004 358.998,580.874 366.288,581.154 C 385.897,583.064 421.088,576.254 428.088,554.675 L 429.737,554.675 L 429.737,554.675 z" id="path3048" style="fill:#3a3a3a"/>
              <path d="M 429.668,552.725 L 429.737,552.725 L 429.737,554.675 L 428.088,554.675 C 421.088,576.254 385.898,583.065 366.288,581.154 C 358.998,580.874 349.357,579.004 340.548,575.364 C 340.568,575.294 340.588,575.224 340.608,575.144 C 341.919,570.244 342.198,569.284 340.669,564.414 C 340.669,564.404 340.658,564.394 340.658,564.385 C 367.778,575.504 409.108,570.914 424.488,550.624 L 422.438,550.385 C 425.348,547.345 427.579,543.834 428.838,539.824 L 429.168,539.864 L 429.138,540.124 L 428.388,542.975 L 428.168,543.575 L 428.987,546.575 L 429.517,549.655 L 429.668,552.725 z" id="path3050" style="fill:#3a3a3a"/>
              <path d="M 429.737,402.955 L 429.737,534.355 L 429.668,534.355 L 429.518,537.275 L 429.168,539.865 L 428.838,539.825 C 427.578,543.835 425.348,547.346 422.438,550.386 C 410.268,563.075 386.178,567.686 370.938,567.056 C 361.778,566.946 350.028,565.096 339.718,560.826 C 339.697,560.736 339.688,560.686 339.688,560.686 L 339.688,423.906 C 339.688,423.866 339.688,423.826 339.688,423.796 C 351.408,428.637 365.158,430.437 375.218,430.026 C 393.138,430.016 422.657,422.296 428.838,402.956 L 429.737,402.956 L 429.737,402.955 z" id="path3052" style="fill:#3a3a3a"/>
              <path d="M 372.888,363.705 L 372.888,363.105 C 380.468,363.105 387.968,364.005 394.938,365.675 C 409.869,369.345 429.308,379.515 429.668,397.105 L 429.737,397.105 L 429.737,397.255 L 429.737,397.325 L 429.737,402.955 L 428.838,402.955 C 422.657,422.295 393.138,430.016 375.218,430.025 C 365.157,430.435 351.407,428.635 339.688,423.795 C 339.728,421.005 341.308,419.425 341.608,419.155 C 341.638,419.115 341.658,419.105 341.658,419.105 L 350.198,412.625 L 350.209,412.625 C 357.919,415.815 366.799,417.135 373.039,416.905 C 380.108,417.155 390.669,415.415 399.009,411.175 C 399.369,411.005 399.709,410.825 400.059,410.635 C 406.649,407.035 411.639,401.795 411.959,394.635 C 411.959,394.565 411.969,394.485 411.969,394.405 C 411.129,377.675 386.419,371.685 373.039,371.905 C 359.639,371.645 334.938,377.715 334.039,394.405 C 334.039,394.525 334.049,394.645 334.059,394.765 C 334.189,396.965 334.749,398.985 335.669,400.825 L 321.969,402.675 C 321.969,402.675 321.939,402.675 321.879,402.695 C 320.698,400.165 319.988,397.415 319.869,394.405 C 320.778,372.975 351.709,364.225 369.058,363.805 C 370.288,363.745 371.567,363.705 372.888,363.705 z" id="path3054" style="fill:#3a3a3a"/>
              <path d="M 355.718,597.735 C 354.548,597.505 353.368,597.255 352.188,596.964 C 347.938,595.944 343.678,594.584 339.648,592.845 L 339.718,592.675 C 339.718,592.675 339.718,592.265 339.708,591.584 C 350.058,595.895 361.868,597.765 370.937,597.805 C 389.807,598.655 422.347,591.294 428.837,570.655 L 428.887,570.676 C 425.097,584.905 409.497,593.196 393.887,596.955 C 392.707,597.235 391.537,597.495 390.367,597.726 C 383.846,599.026 377.476,599.536 372.137,599.375 C 367.277,599.425 361.578,598.905 355.718,597.735 z" id="path3056" style="fill:#3a3a3a"/>
              <path d="M 422.438,550.385 L 424.488,550.624 C 409.108,570.914 367.778,575.504 340.658,564.385 C 340.198,562.905 339.829,561.294 339.719,560.824 C 350.029,565.095 361.779,566.944 370.939,567.054 C 386.178,567.685 410.268,563.075 422.438,550.385 z" id="path3058" style="fill:#3a3a3a"/>
              <path d="M 400.038,379.405 C 385.017,370.985 360.977,370.985 345.968,379.405 L 345.738,379.555 L 345.438,379.705 L 345.018,379.985 L 344.988,380.005 C 339.539,383.135 334.598,388.205 334.058,394.765 C 334.048,394.645 334.038,394.525 334.038,394.405 C 334.937,377.715 359.638,371.645 373.038,371.905 C 386.418,371.685 411.128,377.675 411.968,394.405 C 411.968,394.485 411.958,394.565 411.958,394.635 C 411.678,388.475 406.147,382.815 401.088,380.005 L 401.018,379.965 L 400.789,379.855 L 400.559,379.705 L 400.339,379.555 L 400.038,379.405 z" id="path3060" style="fill:#3a3a3a"/>
              <path d="M 401.088,380.005 C 406.148,382.815 411.678,388.475 411.958,394.635 C 411.638,401.795 406.647,407.035 400.058,410.635 L 400.038,410.605 L 374.147,395.675 L 374.017,395.605 L 400.557,380.225 L 401.017,379.965 L 401.088,380.005 z" id="path3062" style="fill:#e0e0e0"/>
              <polygon points="373.038,395.005 373.038,394.965 400.038,379.405 400.338,379.555 400.558,379.705 400.788,379.855 401.018,379.965 400.558,380.225 374.018,395.605 374.147,395.675 374.018,395.905 373.868,396.055 373.487,396.205 373.388,396.365 373.008,396.145 372.618,396.375 372.518,396.205 372.138,396.055 371.987,395.905 371.857,395.675 371.987,395.605 345.438,380.225 345.438,380.195 345.668,380.075 345.888,379.925 345.968,379.705 345.968,379.405 373.008,394.985 373.038,395.005 " id="polygon3064" style="fill:#e0e0e0"/>
              <path d="M 400.038,410.605 L 400.058,410.635 C 399.708,410.825 399.369,411.005 399.008,411.175 L 373.388,396.375 L 373.388,396.365 L 373.488,396.205 L 373.869,396.055 L 374.018,395.905 L 374.148,395.675 L 400.038,410.605 z" id="path3066" style="fill:#e0e0e0"/>
              <path d="M 373.038,394.965 L 373.008,394.985 L 345.968,379.405 C 360.978,370.985 385.018,370.985 400.038,379.405 L 373.038,394.965 z" id="path3068" style="fill:#e0e0e0"/>
              <path d="M 373.388,396.375 L 399.008,411.175 C 390.668,415.415 380.108,417.155 373.038,416.905 C 366.798,417.135 357.918,415.815 350.208,412.625 L 350.197,412.625 C 349.128,412.185 348.078,411.705 347.057,411.185 L 372.618,396.375 L 373.008,396.145 L 373.388,396.365 L 373.388,396.375 z" id="path3070" style="fill:#e0e0e0"/>
              <path d="M 393.888,596.955 L 393.888,700.476 L 393.738,700.856 L 393.369,701.226 L 392.759,701.455 L 392.089,701.525 L 391.419,701.455 L 390.889,701.226 L 390.439,700.856 L 390.37,700.476 L 390.37,597.726 C 391.538,597.495 392.708,597.235 393.888,596.955 z" id="path3072" style="fill:#e0e0e0"/>
              <path d="M 318.947,544.015 C 318.947,544.105 318.947,544.145 318.947,544.145 C 318.947,544.145 318.857,544.815 318.927,545.815 L 318.737,545.825 L 317.878,543.555 L 317.688,543.055 L 316.938,540.204 L 316.488,537.274 L 316.339,534.354 L 316.339,534.274 L 316.339,397.474 L 316.339,397.324 L 316.339,397.254 C 316.359,386.374 324.679,377.624 333.669,372.574 C 345.119,366.034 359.119,363.104 372.889,363.104 L 372.889,363.704 C 371.569,363.704 370.289,363.744 369.059,363.804 C 351.709,364.224 320.779,372.974 319.87,394.404 C 319.989,397.414 320.699,400.164 321.88,402.694 C 321.38,402.794 318.949,403.494 318.949,406.824 C 318.949,406.864 318.949,406.924 318.949,407.004 C 318.947,413.545 318.947,539.395 318.947,544.015 z" id="path3074" style="fill:#3a3a3a"/>
              <path d="M 372.518,396.205 L 372.619,396.375 L 347.058,411.185 C 346.678,410.995 346.298,410.795 345.918,410.585 L 371.857,395.675 L 371.987,395.905 L 372.137,396.055 L 372.518,396.205 z" id="path3076" style="fill:#e0e0e0"/>
              <path d="M 345.407,380.205 L 345.437,380.225 L 371.987,395.605 L 371.857,395.675 L 345.918,410.585 C 341.428,408.125 337.697,404.895 335.668,400.825 C 334.748,398.985 334.188,396.965 334.058,394.765 C 334.598,388.205 339.538,383.135 344.988,380.005 L 345.018,379.985 L 345.407,380.205 z" id="path3078" style="fill:#e0e0e0"/>
              <path d="M 355.718,597.735 L 355.718,693.575 L 355.558,694.025 L 355.188,694.325 L 354.588,694.555 L 353.918,694.624 L 353.237,694.555 L 352.637,694.325 L 352.257,694.025 L 352.187,693.575 L 352.187,596.975 L 352.187,596.964 C 353.368,597.254 354.548,597.504 355.718,597.735 z" id="path3080" style="fill:#e0e0e0"/>
              <path d="M 347.058,411.185 C 348.079,411.705 349.128,412.185 350.198,412.625 L 341.658,419.105 C 341.658,419.105 341.638,419.115 341.608,419.155 C 332.988,415.545 325.369,410.155 321.879,402.695 C 321.939,402.675 321.969,402.675 321.969,402.675 L 335.669,400.825 C 337.698,404.895 341.429,408.125 345.919,410.585 C 346.298,410.795 346.678,410.995 347.058,411.185 z" id="path3082" style="fill:#bababa"/>
              <path d="M 341.607,419.155 C 341.307,419.425 339.727,421.005 339.687,423.795 C 330.757,420.095 322.998,414.626 318.947,407.005 C 318.947,406.925 318.947,406.865 318.947,406.825 C 318.947,403.495 321.378,402.795 321.878,402.695 C 325.368,410.155 332.987,415.545 341.607,419.155 z" id="path3084" style="fill:#bababa"/>
              <path d="M 340.668,564.415 C 342.197,569.285 341.918,570.245 340.607,575.145 C 340.587,575.225 340.567,575.294 340.547,575.365 C 331.937,571.815 324.117,566.575 320.037,559.495 C 320.037,559.485 320.047,559.465 320.057,559.445 C 321.417,555.995 320.947,553.075 320.297,550.885 L 321.517,550.624 C 326.017,556.555 332.727,561.145 340.657,564.385 C 340.657,564.395 340.668,564.405 340.668,564.415 z" id="path3086" style="fill:#bababa"/>
              <path d="M 339.718,560.825 C 339.828,561.295 340.197,562.905 340.657,564.386 C 332.727,561.146 326.017,556.556 321.517,550.625 L 320.297,550.886 C 319.946,549.736 319.547,548.785 319.327,548.066 C 319.077,547.236 318.967,546.456 318.927,545.816 C 318.857,544.816 318.947,544.146 318.947,544.146 C 318.947,544.146 318.947,544.106 318.947,544.016 C 323.088,551.705 330.868,557.155 339.718,560.825 z" id="path3088" style="fill:#bababa"/>
              <path d="M 340.548,575.365 C 340.078,577.025 339.798,577.365 339.728,579.285 C 330.728,575.565 322.918,570.045 318.869,562.395 C 318.919,560.624 319.648,560.395 320.039,559.495 C 324.118,566.575 331.938,571.815 340.548,575.365 z" id="path3090" style="fill:#bababa"/>
              <path d="M 339.728,579.285 C 339.718,579.315 339.718,579.346 339.718,579.375 C 339.668,581.065 339.697,588.715 339.708,591.585 C 330.777,587.886 322.937,582.375 318.868,574.695 L 318.868,562.565 C 318.868,562.504 318.868,562.445 318.868,562.395 C 322.918,570.044 330.728,575.565 339.728,579.285 z" id="path3092" style="fill:#bababa"/>
              <path d="M 339.718,560.825 C 330.868,557.155 323.088,551.705 318.947,544.015 C 318.947,539.395 318.947,413.545 318.947,407.005 C 322.998,414.625 330.758,420.095 339.687,423.795 C 339.687,423.825 339.687,423.865 339.687,423.905 L 339.687,560.685 C 339.688,560.685 339.697,560.735 339.718,560.825 z" id="path3094" style="fill:#bababa"/>
              <path d="M 320.298,550.885 C 320.947,553.074 321.418,555.994 320.058,559.445 C 320.048,559.465 320.038,559.485 320.038,559.495 C 318.288,556.465 317.227,553.085 317.088,549.355 L 316.558,549.265 L 317.018,546.575 L 317.838,543.575 L 317.878,543.555 L 318.737,545.825 L 318.927,545.815 C 318.967,546.455 319.077,547.235 319.327,548.065 C 319.548,548.785 319.947,549.735 320.298,550.885 z" id="path3096" style="fill:#3a3a3a"/>
              <path d="M 318.868,562.395 C 318.868,562.445 318.868,562.504 318.868,562.565 L 318.868,574.695 L 318.868,575.305 C 317.368,572.235 316.477,568.845 316.338,565.105 L 316.338,552.805 L 316.487,549.655 L 316.557,549.265 L 317.087,549.355 C 317.227,553.084 318.287,556.464 320.037,559.495 C 319.647,560.395 318.918,560.625 318.868,562.395 z" id="path3098" style="fill:#3a3a3a"/>
            </g>
            <g id="g3100">
              <polyline stroke-miterlimit="10" points="    429.737,565.105 429.737,558.425 429.737,554.675 429.737,552.725   " id="polyline3102" style="fill:none;stroke:#000000;stroke-width:1.44000006;stroke-linecap:round;stroke-linejoin:round;stroke-miterlimit:10"/>
              <polyline stroke-miterlimit="10" points="    316.338,534.355 316.487,537.275 316.938,540.205 317.688,543.055 317.878,543.555 318.737,545.825   " id="polyline3104" style="fill:none;stroke:#000000;stroke-width:1.44000006;stroke-linecap:round;stroke-linejoin:round;stroke-miterlimit:10"/>
              <polyline stroke-miterlimit="10" points="    347.018,411.205 347.058,411.185 372.618,396.375 373.008,396.145 373.038,396.125   " id="polyline3106" style="fill:none;stroke:#000000;stroke-width:0.40000001;stroke-linecap:round;stroke-linejoin:round;stroke-miterlimit:10"/>
              <polyline stroke-miterlimit="10" points="    374.018,395.605 400.558,380.225 401.018,379.965 401.088,379.925   " id="polyline3108" style="fill:none;stroke:#000000;stroke-width:0.40000001;stroke-linecap:round;stroke-linejoin:round;stroke-miterlimit:10"/>
              <polyline stroke-miterlimit="10" points="    317.838,543.575 317.018,546.575 316.558,549.265 316.487,549.655 316.338,552.805   " id="polyline3110" style="fill:none;stroke:#000000;stroke-width:1.44000006;stroke-linecap:round;stroke-linejoin:round;stroke-miterlimit:10"/>
              <polyline stroke-miterlimit="10" points="    400.038,379.405 373.038,394.965 373.008,394.985 372.968,395.005   " id="polyline3112" style="fill:none;stroke:#000000;stroke-width:0.40000001;stroke-linecap:round;stroke-linejoin:round;stroke-miterlimit:10"/>
              <polyline stroke-miterlimit="10" points="    371.987,395.605 371.857,395.675 345.918,410.585 345.888,410.605   " id="polyline3114" style="fill:none;stroke:#000000;stroke-width:0.40000001;stroke-linecap:round;stroke-linejoin:round;stroke-miterlimit:10"/>
              <polyline stroke-miterlimit="10" points="    374.018,395.605 374.147,395.675 400.038,410.605   " id="polyline3116" style="fill:none;stroke:#000000;stroke-width:0.40000001;stroke-linecap:round;stroke-linejoin:round;stroke-miterlimit:10"/>
              <polyline stroke-miterlimit="10" points="    400.558,379.705 400.338,379.555 400.038,379.405   " id="polyline3118" style="fill:none;stroke:#000000;stroke-width:0.40000001;stroke-linecap:round;stroke-linejoin:round;stroke-miterlimit:10"/>
              <polyline stroke-miterlimit="10" points="    401.088,380.005 401.018,379.965 400.788,379.855 400.558,379.705   " id="polyline3120" style="fill:none;stroke:#000000;stroke-width:0.40000001;stroke-linecap:round;stroke-linejoin:round;stroke-miterlimit:10"/>
              <polyline stroke-miterlimit="10" points="    345.438,380.225 345.438,380.195 345.438,379.705 345.438,379.625   " id="polyline3122" style="fill:none;stroke:#000000;stroke-width:0.40000001;stroke-linecap:round;stroke-linejoin:round;stroke-miterlimit:10"/>
              <polyline stroke-miterlimit="10" points="    371.987,395.605 345.438,380.225 345.407,380.205 345.018,379.985 344.918,379.925   " id="polyline3124" style="fill:none;stroke:#000000;stroke-width:0.40000001;stroke-linecap:round;stroke-linejoin:round;stroke-miterlimit:10"/>
              <path stroke-miterlimit="10" d="M 334.038,395.005 C 334.048,394.925 334.048,394.845 334.058,394.765 C 334.598,388.205 339.538,383.135 344.988,380.005" id="path3126" style="fill:none;stroke:#000000;stroke-width:0.80000001;stroke-linecap:round;stroke-linejoin:round;stroke-miterlimit:10"/>
              <path stroke-miterlimit="10" d="M 401.088,380.005 C 406.148,382.815 411.678,388.475 411.958,394.635 C 411.968,394.755 411.968,394.885 411.968,395.005" id="path3128" style="fill:none;stroke:#000000;stroke-width:0.80000001;stroke-linecap:round;stroke-linejoin:round;stroke-miterlimit:10"/>
              <polyline stroke-miterlimit="10" points="    344.987,380.005 345.018,379.985 345.438,379.705   " id="polyline3130" style="fill:none;stroke:#000000;stroke-width:0.40000001;stroke-linecap:round;stroke-linejoin:round;stroke-miterlimit:10"/>
              <polyline stroke-miterlimit="10" points="    345.438,379.705 345.737,379.555 345.968,379.405   " id="polyline3132" style="fill:none;stroke:#000000;stroke-width:0.40000001;stroke-linecap:round;stroke-linejoin:round;stroke-miterlimit:10"/>
              <path stroke-miterlimit="10" d="M 345.968,379.405 C 360.978,370.985 385.018,370.985 400.038,379.405" id="path3134" style="fill:none;stroke:#000000;stroke-width:0.80000001;stroke-linecap:round;stroke-linejoin:round;stroke-miterlimit:10"/>
              <polyline stroke-miterlimit="10" points="    345.968,379.405 373.008,394.985 373.038,395.005   " id="polyline3136" style="fill:none;stroke:#000000;stroke-width:0.40000001;stroke-linecap:round;stroke-linejoin:round;stroke-miterlimit:10"/>
              <polyline stroke-miterlimit="10" points="    399.058,411.205 399.008,411.175 373.388,396.375 373.388,396.365 373.008,396.145 372.968,396.125   " id="polyline3138" style="fill:none;stroke:#000000;stroke-width:0.40000001;stroke-linecap:round;stroke-linejoin:round;stroke-miterlimit:10"/>
              <path stroke-miterlimit="10" d="M 429.668,397.105 C 429.308,379.515 409.868,369.345 394.938,365.675 C 387.968,364.005 380.468,363.105 372.888,363.105 C 359.118,363.105 345.118,366.035 333.668,372.575" id="path3140" style="fill:none;stroke:#000000;stroke-width:1.44000006;stroke-linecap:round;stroke-linejoin:round;stroke-miterlimit:10"/>
              <path stroke-miterlimit="10" d="M 316.338,565.105 C 316.478,568.845 317.368,572.235 318.868,575.305 C 322.737,583.225 330.607,588.964 339.647,592.845 C 343.677,594.584 347.937,595.945 352.187,596.964 C 353.368,597.254 354.547,597.504 355.717,597.735 C 361.577,598.905 367.277,599.425 372.137,599.375 C 377.477,599.535 383.847,599.025 390.367,597.726 C 391.537,597.496 392.707,597.236 393.887,596.955 C 409.497,593.195 425.097,584.905 428.887,570.676 C 429.367,568.915 429.647,567.056 429.737,565.106 L 429.668,565.106" id="path3142" style="fill:none;stroke:#000000;stroke-width:1.44000006;stroke-linecap:round;stroke-linejoin:round;stroke-miterlimit:10"/>
              <polyline stroke-miterlimit="10" points="    345.668,380.075 345.438,380.195 345.407,380.205 345.368,380.225   " id="polyline3144" style="fill:none;stroke:#000000;stroke-width:0.40000001;stroke-linecap:round;stroke-linejoin:round;stroke-miterlimit:10"/>
              <polyline stroke-miterlimit="10" points="    400.038,379.705 400.038,379.405 400.038,379.325   " id="polyline3146" style="fill:none;stroke:#000000;stroke-width:0.40000001;stroke-linecap:round;stroke-linejoin:round;stroke-miterlimit:10"/>
              <polyline stroke-miterlimit="10" points="    373.038,395.305 373.038,395.005 373.038,394.965 373.038,394.925   " id="polyline3148" style="fill:none;stroke:#000000;stroke-width:0.40000001;stroke-linecap:round;stroke-linejoin:round;stroke-miterlimit:10"/>
              <polyline stroke-miterlimit="10" points="    400.038,379.705 400.118,379.925 400.338,380.075   " id="polyline3150" style="fill:none;stroke:#000000;stroke-width:0.40000001;stroke-linecap:round;stroke-linejoin:round;stroke-miterlimit:10"/>
              <polyline stroke-miterlimit="10" points="    345.968,379.705 345.968,379.405 345.968,379.325   " id="polyline3152" style="fill:none;stroke:#000000;stroke-width:0.40000001;stroke-linecap:round;stroke-linejoin:round;stroke-miterlimit:10"/>
              <polyline stroke-miterlimit="10" points="    345.668,380.075 345.888,379.925 345.968,379.705   " id="polyline3154" style="fill:none;stroke:#000000;stroke-width:0.40000001;stroke-linecap:round;stroke-linejoin:round;stroke-miterlimit:10"/>
              <path stroke-miterlimit="10" d="M 350.197,412.625 C 349.128,412.185 348.078,411.705 347.057,411.185 C 346.677,410.995 346.297,410.795 345.917,410.585 C 341.427,408.125 337.696,404.895 335.667,400.825 C 334.747,398.985 334.187,396.965 334.057,394.765 C 334.047,394.645 334.037,394.525 334.037,394.405" id="path3156" style="fill:none;stroke:#000000;stroke-width:0.80000001;stroke-linecap:round;stroke-linejoin:round;stroke-miterlimit:10"/>
              <path stroke-miterlimit="10" d="M 334.038,394.405 C 334.937,377.715 359.638,371.645 373.038,371.905 C 386.418,371.685 411.128,377.675 411.968,394.405 C 411.968,394.485 411.958,394.565 411.958,394.635 C 411.638,401.795 406.647,407.035 400.058,410.635 C 399.708,410.825 399.369,411.005 399.008,411.175 C 390.668,415.415 380.108,417.155 373.038,416.905 C 366.798,417.135 357.918,415.815 350.208,412.625" id="path3158" style="fill:none;stroke:#000000;stroke-width:0.80000001;stroke-linecap:round;stroke-linejoin:round;stroke-miterlimit:10"/>
              <polyline stroke-miterlimit="10" points="    372.518,396.205 372.138,396.055 371.987,395.905   " id="polyline3160" style="fill:none;stroke:#000000;stroke-width:0.40000001;stroke-linecap:round;stroke-linejoin:round;stroke-miterlimit:10"/>
              <line stroke-miterlimit="10" x1="390.36801" y1="597.72498" x2="390.36801" y2="700.47498" id="line3162" style="fill:none;stroke:#000000;stroke-width:1.44000006;stroke-linecap:round;stroke-linejoin:round;stroke-miterlimit:10"/>
              <line stroke-miterlimit="10" x1="352.18799" y1="596.97498" x2="352.18799" y2="693.57501" id="line3164" style="fill:none;stroke:#000000;stroke-width:1.44000006;stroke-linecap:round;stroke-linejoin:round;stroke-miterlimit:10"/>
              <polyline stroke-miterlimit="10" points="    316.338,397.475 316.338,534.275 316.338,534.355   " id="polyline3166" style="fill:none;stroke:#000000;stroke-width:1.44000006;stroke-linecap:round;stroke-linejoin:round;stroke-miterlimit:10"/>
              <line stroke-miterlimit="10" x1="316.33801" y1="552.80499" x2="316.33801" y2="565.10498" id="line3168" style="fill:none;stroke:#000000;stroke-width:1.44000006;stroke-linecap:round;stroke-linejoin:round;stroke-miterlimit:10"/>
              <polyline stroke-miterlimit="10" points="    374.018,395.905 373.868,396.055 373.487,396.205   " id="polyline3170" style="fill:none;stroke:#000000;stroke-width:0.40000001;stroke-linecap:round;stroke-linejoin:round;stroke-miterlimit:10"/>
              <polyline stroke-miterlimit="10" points="    427.338,545.754 428.168,543.575 428.388,542.975 429.138,540.125 429.168,539.865 429.518,537.275 429.668,534.355   " id="polyline3172" style="fill:none;stroke:#000000;stroke-width:1.44000006;stroke-linecap:round;stroke-linejoin:round;stroke-miterlimit:10"/>
              <polyline stroke-miterlimit="10" points="    429.668,552.805 429.668,552.725 429.518,549.655 428.987,546.575 428.168,543.575   " id="polyline3174" style="fill:none;stroke:#000000;stroke-width:1.44000006;stroke-linecap:round;stroke-linejoin:round;stroke-miterlimit:10"/>
              <path stroke-miterlimit="10" d="M 424.487,550.625 C 409.107,570.915 367.777,575.505 340.657,564.386 C 332.727,561.146 326.017,556.556 321.517,550.625" id="path3176" style="fill:none;stroke:#000000;stroke-width:0.72000003;stroke-linecap:round;stroke-linejoin:round;stroke-miterlimit:10"/>
              <path stroke-miterlimit="10" d="M 317.168,539.905 C 317.647,541.345 318.248,542.705 318.947,544.015 C 323.088,551.704 330.868,557.155 339.718,560.825 C 350.028,565.096 361.778,566.945 370.938,567.055 C 386.178,567.685 410.268,563.075 422.438,550.385 C 425.348,547.345 427.579,543.834 428.838,539.824" id="path3178" style="fill:none;stroke:#000000;stroke-width:0.72000003;stroke-linecap:round;stroke-linejoin:round;stroke-miterlimit:10"/>
              <path stroke-miterlimit="10" d="M 428.838,558.425 C 422.578,577.904 393.048,585.475 375.058,585.504 C 365.068,585.935 351.398,584.114 339.728,579.284 C 330.728,575.564 322.918,570.044 318.869,562.394 C 318.198,561.104 317.619,559.764 317.169,558.354" id="path3180" style="fill:none;stroke:#000000;stroke-width:0.72000003;stroke-linecap:round;stroke-linejoin:round;stroke-miterlimit:10"/>
              <line stroke-miterlimit="10" x1="428.918" y1="548.375" x2="428.83801" y2="547.02502" id="line3182" style="fill:none;stroke:#000000;stroke-width:0.72000003;stroke-linecap:round;stroke-linejoin:round;stroke-miterlimit:10"/>
              <line stroke-miterlimit="10" x1="428.61801" y1="545.60498" x2="428.30801" y2="544.25403" id="line3184" style="fill:none;stroke:#000000;stroke-width:0.72000003;stroke-linecap:round;stroke-linejoin:round;stroke-miterlimit:10"/>
              <path stroke-miterlimit="10" d="M 317.088,549.355 C 317.228,553.084 318.288,556.464 320.038,559.495 C 324.118,566.575 331.937,571.815 340.548,575.365 C 349.358,579.005 358.998,580.875 366.288,581.155 C 385.897,583.065 421.088,576.255 428.088,554.676" id="path3186" style="fill:none;stroke:#000000;stroke-width:0.72000003;stroke-linecap:round;stroke-linejoin:round;stroke-miterlimit:10"/>
              <path stroke-miterlimit="10" d="M 333.668,372.575 C 324.678,377.625 316.357,386.375 316.338,397.255" id="path3188" style="fill:none;stroke:#000000;stroke-width:1.44000006;stroke-linecap:round;stroke-linejoin:round;stroke-miterlimit:10"/>
              <line stroke-miterlimit="10" x1="429.737" y1="397.10501" x2="429.737" y2="397.255" id="line3190" style="fill:none;stroke:#000000;stroke-width:1.44000006;stroke-linecap:round;stroke-linejoin:round;stroke-miterlimit:10"/>
              <path stroke-miterlimit="10" d="M 428.838,402.955 C 422.657,422.295 393.138,430.016 375.218,430.025 C 365.157,430.435 351.407,428.635 339.688,423.795 C 330.758,420.095 322.999,414.626 318.948,407.005 C 318.268,405.735 317.698,404.415 317.238,403.025" id="path3192" style="fill:none;stroke:#000000;stroke-width:0.72000003;stroke-linecap:round;stroke-linejoin:round;stroke-miterlimit:10"/>
              <polyline stroke-miterlimit="10" points="    316.338,397.475 316.338,397.325 316.338,397.255   " id="polyline3194" style="fill:none;stroke:#000000;stroke-width:1.44000006;stroke-linecap:round;stroke-linejoin:round;stroke-miterlimit:10"/>
              <path stroke-miterlimit="10" d="M 425.237,400.025 C 418.517,419.645 387.157,426.245 369.057,425.004 C 361.328,424.864 350.877,423.034 341.607,419.154 C 332.987,415.544 325.368,410.154 321.878,402.694 C 320.697,400.164 319.987,397.414 319.868,394.404 C 320.777,372.974 351.708,364.224 369.057,363.804 C 370.287,363.744 371.567,363.704 372.887,363.704 C 391.517,363.704 418.677,370.274 425.237,388.924" id="path3196" style="fill:none;stroke:#000000;stroke-width:0.72000003;stroke-linecap:round;stroke-linejoin:round;stroke-miterlimit:10"/>
              <path stroke-miterlimit="10" d="M 317.168,570.725 C 317.618,572.105 318.188,573.435 318.868,574.695 C 322.937,582.375 330.777,587.885 339.708,591.585 C 350.058,595.896 361.868,597.766 370.937,597.806 C 389.807,598.656 422.347,591.295 428.837,570.656" id="path3198" style="fill:none;stroke:#000000;stroke-width:0.72000003;stroke-linecap:round;stroke-linejoin:round;stroke-miterlimit:10"/>
              <line stroke-miterlimit="10" x1="400.55801" y1="380.22501" x2="400.258" y2="380.005" id="line3200" style="fill:none;stroke:#000000;stroke-width:1.44000006;stroke-linecap:round;stroke-linejoin:round;stroke-miterlimit:10"/>
              <polyline stroke-miterlimit="10" points="    393.888,700.475 393.888,596.955 393.888,596.905   " id="polyline3202" style="fill:none;stroke:#000000;stroke-width:1.44000006;stroke-linecap:round;stroke-linejoin:round;stroke-miterlimit:10"/>
              <polyline stroke-miterlimit="10" points="    355.718,693.575 355.718,597.735 355.718,597.655   " id="polyline3204" style="fill:none;stroke:#000000;stroke-width:1.44000006;stroke-linecap:round;stroke-linejoin:round;stroke-miterlimit:10"/>
              <polyline stroke-miterlimit="10" points="    390.368,700.475 390.438,700.855 390.888,701.225 391.418,701.455 392.088,701.525 392.758,701.455 393.368,701.225     393.737,700.855 393.888,700.475   " id="polyline3206" style="fill:none;stroke:#000000;stroke-width:1.44000006;stroke-linecap:round;stroke-linejoin:round;stroke-miterlimit:10"/>
              <polyline stroke-miterlimit="10" points="    352.188,693.575 352.258,694.025 352.638,694.325 353.237,694.555 353.918,694.625 354.588,694.555 355.188,694.325     355.558,694.025 355.718,693.575   " id="polyline3208" style="fill:none;stroke:#000000;stroke-width:1.44000006;stroke-linecap:round;stroke-linejoin:round;stroke-miterlimit:10"/>
              <polyline stroke-miterlimit="10" points="    429.737,534.355 429.737,402.955 429.737,397.325 429.737,397.255   " id="polyline3210" style="fill:none;stroke:#000000;stroke-width:1.44000006;stroke-linecap:round;stroke-linejoin:round;stroke-miterlimit:10"/>
              <path d="M 335.668,400.825 L 321.968,402.675 C 321.968,402.675 321.938,402.675 321.878,402.695 C 321.378,402.795 318.947,403.495 318.947,406.825 C 318.947,406.865 318.947,406.925 318.947,407.005 C 318.947,413.545 318.947,539.395 318.947,544.015 C 318.947,544.105 318.947,544.145 318.947,544.145 C 318.947,544.145 318.857,544.815 318.927,545.815 C 318.967,546.455 319.077,547.235 319.327,548.065 C 319.547,548.785 319.946,549.735 320.297,550.885 C 320.946,553.074 321.417,555.994 320.057,559.445 C 320.047,559.465 320.037,559.485 320.037,559.495 C 319.646,560.395 318.917,560.625 318.867,562.395 C 318.867,562.445 318.867,562.504 318.867,562.565 L 318.867,574.695 L 318.867,575.305 L 318.867,575.735" id="path3212" style="fill:none;stroke:#000000;stroke-width:0.5;stroke-opacity:1"/>
              <path d="M 339.718,592.675 C 339.718,592.675 339.718,592.265 339.708,591.584 C 339.697,588.714 339.668,581.064 339.718,579.374 C 339.718,579.345 339.718,579.314 339.728,579.284 C 339.798,577.364 340.079,577.024 340.548,575.364 C 340.568,575.294 340.588,575.224 340.608,575.144 C 341.919,570.244 342.198,569.284 340.669,564.414 C 340.669,564.404 340.658,564.394 340.658,564.385 C 340.198,562.905 339.829,561.294 339.719,560.824 C 339.698,560.734 339.689,560.684 339.689,560.684 L 339.689,423.904 C 339.689,423.864 339.689,423.824 339.689,423.794 C 339.729,421.004 341.309,419.424 341.609,419.154 C 341.639,419.114 341.659,419.104 341.659,419.104 L 350.199,412.624 L 350.21,412.624" id="path3214" style="fill:none;stroke:#000000;stroke-width:0.5;stroke-opacity:1"/>
            </g>
          </g>
          <g id="g3233">
            <g id="g3235">
              <g id="g3237">
                <g id="g3239">
                  <defs id="defs3241">
                    <polygon id="XMLID_124_" points="415.939,419.113 416.648,419.522 416.249,560.545 415.54,560.136 415.939,419.113 "/>
                  </defs>
                  <clipPath id="XMLID_156_">
                    <use height="1052.3622" width="744.09448" y="0" x="0" xlink:href="#XMLID_124_" id="use3245"/>
                  </clipPath>
                </g>
                <g id="g3247">
                  <defs id="defs3249">
                    <path id="XMLID_126_" d="M 317.505,395.601 C 317.529,387.059 323.143,378.529 334.358,372.012 C 356.936,358.892 393.659,358.892 416.382,372.012 C 427.817,378.614 433.528,387.28 433.503,395.933 C 433.369,442.943 433.236,489.947 433.104,536.956 L 433.104,536.956 C 433.128,528.303 427.417,519.637 415.982,513.035 C 393.258,499.916 356.536,499.915 333.959,513.035 C 322.744,519.553 317.13,528.082 317.105,536.624 C 317.225,494.317 317.385,437.908 317.505,395.601 z"/>
                  </defs>
                  <clipPath id="XMLID_157_">
                    <use height="1052.3622" width="744.09448" y="0" x="0" xlink:href="#XMLID_126_" id="use3253"/>
                  </clipPath>
                </g>
                <g id="g3255">
                  <defs id="defs3257">
                    <path id="XMLID_128_" d="M 317.104,536.624 L 317.504,395.602 C 317.48,404.255 323.191,412.921 334.625,419.523 C 357.35,432.643 394.071,432.643 416.647,419.523 L 416.248,560.546 C 393.671,573.665 356.95,573.666 334.225,560.546 C 322.791,553.943 317.08,545.277 317.104,536.624 z"/>
                  </defs>
                  <clipPath id="XMLID_158_">
                    <use height="1052.3622" width="744.09448" y="0" x="0" xlink:href="#XMLID_128_" id="use3261"/>
                  </clipPath>
                </g>
                <g id="g3263">
                  <defs id="defs3265">
                    <path id="XMLID_130_" d="M 433.503,395.932 C 433.369,442.942 433.236,489.946 433.104,536.955 C 433.08,545.497 427.465,554.026 416.25,560.545 L 416.649,419.522 C 427.864,413.004 433.479,404.475 433.503,395.932 z"/>
                  </defs>
                  <clipPath id="XMLID_159_">
                    <use height="1052.3622" width="744.09448" y="0" x="0" xlink:href="#XMLID_130_" id="use3269"/>
                  </clipPath>
                </g>
                <g id="g3271">
                  <defs id="defs3273">
                    <polygon id="XMLID_132_" points="416.648,419.522 416.249,560.545 415.54,560.136 415.939,419.113 416.648,419.522 "/>
                  </defs>
                  <clipPath id="XMLID_160_">
                    <use height="1052.3622" width="744.09448" y="0" x="0" xlink:href="#XMLID_132_" id="use3277"/>
                  </clipPath>
                </g>
                <g id="g3279">
                  <defs id="defs3281">
                    <polygon id="XMLID_134_" points="415.939,419.113 415.54,560.136 414.83,559.726 415.229,418.703 415.939,419.113 "/>
                  </defs>
                  <clipPath id="XMLID_161_">
                    <use height="1052.3622" width="744.09448" y="0" x="0" xlink:href="#XMLID_134_" id="use3285"/>
                  </clipPath>
                </g>
                <g id="g3287">
                  <defs id="defs3289">
                    <path id="XMLID_136_" d="M 415.229,418.703 C 426.13,412.368 431.548,404.07 431.501,395.766 L 431.102,536.789 C 431.148,545.093 425.731,553.39 414.83,559.726 C 414.95,517.419 415.11,461.01 415.229,418.703 z"/>
                  </defs>
                  <clipPath id="XMLID_162_">
                    <use height="1052.3622" width="744.09448" y="0" x="0" xlink:href="#XMLID_136_" id="use3293"/>
                  </clipPath>
                </g>
                <g id="g3295">
                  <defs id="defs3297">
                    <path id="XMLID_138_" d="M 431.502,395.767 L 431.103,536.79 C 431.055,528.487 425.544,520.189 414.573,513.853 C 403.6,507.519 389.257,504.354 374.922,504.353 C 360.587,504.354 346.278,507.519 335.378,513.854 C 324.477,520.189 319.06,528.487 319.106,536.791 L 319.505,395.768 C 319.46,387.464 324.877,379.166 335.777,372.831 C 346.678,366.496 360.987,363.331 375.321,363.331 C 389.657,363.332 404,366.497 414.972,372.831 C 425.943,379.166 431.455,387.463 431.502,395.767 z"/>
                  </defs>
                  <clipPath id="XMLID_163_">
                    <use height="1052.3622" width="744.09448" y="0" x="0" xlink:href="#XMLID_138_" id="use3301"/>
                  </clipPath>
                </g>
                <g id="g3303">
                  <defs id="defs3305">
                    <path id="XMLID_140_" d="M 319.504,395.767 C 319.553,404.07 325.065,412.368 336.035,418.703 C 347.009,425.037 361.351,428.203 375.685,428.203 C 390.021,428.202 404.328,425.037 415.229,418.703 L 414.83,559.726 C 403.929,566.061 389.621,569.226 375.286,569.227 C 360.952,569.226 346.608,566.061 335.636,559.726 C 324.665,553.391 319.154,545.093 319.105,536.79 C 319.225,494.483 319.384,438.074 319.504,395.767 z"/>
                  </defs>
                  <clipPath id="XMLID_164_">
                    <use height="1052.3622" width="744.09448" y="0" x="0" xlink:href="#XMLID_140_" id="use3309"/>
                  </clipPath>
                </g>
                <g id="g3311">
                  <defs id="defs3313">
                    <polygon id="XMLID_142_" points="415.229,418.703 415.939,419.113 415.54,560.136 414.83,559.726 415.229,418.703 "/>
                  </defs>
                  <clipPath id="XMLID_165_">
                    <use height="1052.3622" width="744.09448" y="0" x="0" xlink:href="#XMLID_142_" id="use3317"/>
                  </clipPath>
                </g>
              </g>
            </g>
          </g>
          <path style="fill:#3a3a3a;fill-opacity:1;stroke:none;stroke-width:0.25" id="path3339" d="M 17.561866,180.8404 L 17.649876,149.5864 C 19.785866,151.4294 22.259866,153.1794 25.075876,154.8044 C 25.830876,155.2414 26.600866,155.6624 27.386866,156.0704 L 27.297866,187.3244 C 26.513866,186.9164 25.742866,186.4944 24.986876,186.0584 C 22.171876,184.4324 19.696866,182.6834 17.561866,180.8404 M 15.030866,143.0194 L 15.025866,145.0594 L 14.924866,180.3764 L 14.918866,182.4154 C 15.322866,182.8394 15.743876,183.2594 16.181866,183.6744 C 18.605866,185.9744 21.536866,188.1444 24.975866,190.1294 C 26.353866,190.9254 27.783866,191.6734 29.256866,192.3744 C 29.920866,192.6904 30.593866,192.9964 31.276866,193.2934 L 31.281866,191.2544 L 31.382866,155.9364 L 31.388866,153.8974 C 30.706866,153.6004 30.033866,153.2944 29.368876,152.9784 C 27.894866,152.2774 26.465866,151.5294 25.087876,150.7334 C 21.649876,148.7484 18.717876,146.5784 16.294866,144.2784 C 15.856876,143.8634 15.435866,143.4434 15.030866,143.0194"/>
          <path style="fill:#bababa;fill-opacity:1;stroke:none;stroke-width:0.25" id="path3341" d="M 59.944876,186.5174 C 59.932876,186.5164 59.921876,186.5164 59.909876,186.5154 C 55.861876,183.6794 55.861876,183.6794 54.387876,182.8254 L 54.387876,182.7814 C 55.001876,182.8904 55.530876,182.9684 56.153876,183.0394 C 57.415876,183.1814 58.682876,183.2984 59.954876,183.3924 L 59.944876,186.5174 M 52.925876,181.4054 L 52.921876,182.7994 C 55.066876,184.3374 57.944876,186.3614 60.132876,187.8374 C 60.465876,187.8614 60.798876,187.8844 61.131876,187.9044 L 61.144876,183.4724 C 62.178876,183.5364 63.214876,183.5854 64.252876,183.6184 L 64.256876,182.4014 C 63.218876,182.3684 62.182876,182.3194 61.147876,182.2554 L 61.151876,180.9194 C 60.754876,180.8954 60.356876,180.8674 59.960876,180.8384 L 59.956876,182.1744 C 57.593876,181.9994 55.246876,181.7424 52.925876,181.4054"/>
          <path style="fill:#bababa;fill-opacity:1;stroke:none;stroke-width:0.25" id="path3343" d="M 52.950876,172.8944 L 52.932876,178.9104 C 53.351876,178.9724 53.770876,179.0304 54.190876,179.0864 L 54.204876,174.4204 C 54.216876,174.4214 54.226876,174.4234 54.238876,174.4244 C 59.603876,177.2364 60.164876,177.5284 64.264876,179.3634 L 64.268876,178.0434 C 58.957876,175.6384 58.142876,175.2694 53.948876,173.0354 C 53.615876,172.9904 53.282876,172.9434 52.950876,172.8944"/>
          <path style="fill:#bababa;fill-opacity:1;stroke:none;stroke-width:0.25" id="path3345" d="M 63.291876,169.4374 C 63.025876,172.1224 55.556876,171.0934 54.261876,169.4424 C 54.238876,169.4124 52.204876,166.4614 59.079876,167.2314 C 63.140876,167.6864 63.246876,168.9034 63.291876,169.4224 L 63.291876,169.4374 M 52.774876,168.3324 C 53.057876,172.7914 61.668876,173.4784 63.881876,171.0594 C 64.415876,170.4744 64.459876,169.8794 64.485876,169.5234 L 64.485876,169.5084 C 64.215876,165.2244 55.074876,165.0814 53.373876,166.8034 C 52.855876,167.3274 52.776876,167.9874 52.774876,168.3324"/>
          <path style="fill:#bababa;fill-opacity:1;stroke:none;stroke-width:0.25" id="path3347" d="M 63.312876,161.9094 C 63.046876,164.5954 55.577876,163.5654 54.282876,161.9144 C 54.259876,161.8844 52.225876,158.9344 59.100876,159.7034 C 63.161876,160.1584 63.267876,161.3754 63.312876,161.8944 L 63.312876,161.9094 M 52.796876,160.8054 C 53.079876,165.2634 61.690876,165.9514 63.903876,163.5324 C 64.437876,162.9484 64.481876,162.3524 64.507876,161.9974 L 64.507876,161.9824 C 64.238876,157.6964 55.096876,157.5544 53.395876,159.2764 C 52.877876,159.8004 52.797876,160.4594 52.796876,160.8054"/>
          <path style="fill:#bababa;fill-opacity:1;stroke:none;stroke-width:0.25" id="path3349" d="M 55.266876,150.1664 L 55.262876,151.4434 C 56.537876,151.5984 57.820876,151.7304 59.106876,151.8374 C 61.669876,152.0554 62.024876,152.1824 62.554876,152.6784 C 63.230876,153.3104 63.419876,154.3794 62.566876,155.0744 C 62.067876,155.4804 61.587876,155.6374 59.071876,155.4374 C 57.793876,155.3314 56.519876,155.2004 55.253876,155.0444 L 55.249876,156.3354 C 59.392876,156.8424 63.608876,157.0904 67.823876,157.0804 L 67.826876,155.7894 C 66.347876,155.7934 64.868876,155.7654 63.391876,155.7044 C 64.998876,154.7184 64.925876,152.9764 63.235876,151.9774 C 63.604876,151.9934 63.973876,152.0064 64.342876,152.0184 L 64.345876,150.8594 C 61.300876,150.7654 58.263876,150.5334 55.266876,150.1664"/>
          <path style="fill:#bababa;fill-opacity:1;stroke:none;stroke-width:0.25" id="path3351" d="M 51.902876,140.2494 L 51.882876,147.3294 C 55.969876,147.9754 60.151876,148.3654 64.352876,148.4984 L 64.356876,147.1114 C 62.448876,147.0504 60.543876,146.9374 58.650876,146.7714 L 58.664876,141.8414 C 58.173876,141.7984 57.682876,141.7514 57.191876,141.7004 L 57.177876,146.6304 C 55.889876,146.4984 54.608876,146.3414 53.335876,146.1594 L 53.351876,140.4674 C 52.867876,140.3994 52.384876,140.3254 51.902876,140.2494"/>
          <path style="fill:#bababa;fill-opacity:1;stroke:none;stroke-width:0.25" id="path3353" d="M 51.884876,131.4034 C 51.919876,133.4954 53.117876,134.8134 55.447876,135.3204 C 55.497876,134.9274 55.564876,134.4044 55.615876,134.0124 C 52.743876,133.5994 52.738876,131.0454 53.760876,130.2724 C 55.677876,128.8224 58.230876,131.6174 59.754876,133.2884 C 60.682876,134.3044 62.408876,136.1954 64.388876,136.2404 L 64.408876,129.2854 C 63.913876,129.2694 63.418876,129.2504 62.923876,129.2274 L 62.908876,134.3844 C 60.269876,132.8954 59.123876,129.5774 55.967876,128.7244 C 53.993876,128.1914 51.892876,128.9484 51.884876,131.4034"/>
          <path style="fill:#bababa;fill-opacity:1;stroke:none;stroke-width:0.25" id="path3355" d="M 52.122876,120.2834 L 52.106876,125.5074 C 54.012876,126.0674 56.555876,126.8124 58.478876,127.3104 C 58.541876,126.9534 58.626876,126.4764 58.690876,126.1194 C 56.878876,124.9814 57.138876,122.5654 59.119876,122.1414 C 61.772876,121.5734 64.289876,123.6654 63.079876,125.4344 C 62.577876,126.1684 61.704876,126.3274 60.999876,126.3834 C 61.035876,126.7904 61.082876,127.3334 61.118876,127.7404 C 65.106876,127.5924 65.356876,123.8054 63.629876,122.1374 C 61.183876,119.7794 56.126876,120.2814 56.113876,123.5964 C 56.109876,124.5914 56.649876,125.3474 56.880876,125.6694 L 53.560876,124.6944 L 53.573876,120.4974 C 53.087876,120.4304 52.603876,120.3594 52.122876,120.2834"/>
          <path style="fill:#bababa;fill-opacity:1;stroke:none;stroke-width:0.25" id="path3357" d="M 51.989876,109.5024 L 51.985876,110.9264 C 54.659876,112.1344 60.223876,114.6504 63.065876,115.4464 C 62.557876,115.5464 61.865876,115.6864 61.002876,115.8904 C 55.210876,117.1194 55.099876,117.1434 51.966876,117.6094 L 51.961876,119.1214 C 58.143876,117.9254 58.384876,117.8784 64.443876,116.2254 L 64.447876,114.7874 C 58.035876,112.3464 57.912876,112.2994 51.989876,109.5024"/>
          <path style="fill:#bababa;fill-opacity:1;stroke:none;stroke-width:0.25" id="path3359" d="M 92.667876,164.1474 L 92.659876,168.2954 C 92.978876,168.2094 93.296876,168.1204 93.613876,168.0304 L 93.621876,163.8824 C 93.303876,163.9724 92.985876,164.0604 92.667876,164.1474" sodipodi:nodetypes="ccccc"/>
          <path style="fill:#bababa;fill-opacity:1;stroke:none;stroke-width:0.25" id="path3361" d="M 93.229876,162.7164 L 89.708876,161.4314 C 90.896876,161.1544 92.073876,160.8544 93.234876,160.5314 L 93.229876,162.7164 M 88.148876,160.9214 L 88.146876,161.6184 C 89.667876,162.2084 91.694876,163.0004 93.226876,163.5594 C 93.515876,163.4794 93.802876,163.3974 94.088876,163.3144 L 94.097876,160.2854 C 94.710876,160.1074 95.319876,159.9234 95.923876,159.7314 L 95.925876,158.8734 C 95.321876,159.0634 94.712876,159.2484 94.100876,159.4274 L 94.102876,158.4734 C 93.816876,158.5564 93.529876,158.6384 93.241876,158.7184 L 93.238876,159.6724 C 91.569876,160.1364 89.871876,160.5534 88.148876,160.9214"/>
          <path style="fill:#bababa;fill-opacity:1;stroke:none;stroke-width:0.25" id="path3363" d="M 95.302876,154.9624 C 95.258876,156.1674 93.723876,156.7364 93.218876,156.9244 C 93.186876,156.9374 89.987876,158.1114 89.151876,157.2474 C 88.776876,156.8594 88.814876,155.9424 89.864876,155.2994 C 90.690876,154.7934 93.339876,154.0734 94.292876,154.0964 C 94.759876,154.1074 95.304876,154.3404 95.302876,154.9624 M 88.118876,156.8224 C 88.169876,159.8094 93.810876,158.0624 95.274876,156.5554 C 96.394876,155.4034 96.622876,153.1784 94.244876,153.2194 C 94.183876,153.2204 88.120876,153.7504 88.118876,156.8224"/>
          <path style="fill:#bababa;fill-opacity:1;stroke:none;stroke-width:0.25" id="path3365" d="M 89.582876,150.4784 L 89.580876,151.2914 C 90.295876,151.1264 91.006876,150.9524 91.711876,150.7704 L 91.706876,152.6784 C 92.005876,152.6004 92.304876,152.5224 92.602876,152.4414 L 92.607876,150.5344 C 93.317876,150.3434 94.021876,150.1424 94.719876,149.9344 L 94.721876,149.1204 C 94.023876,149.3294 93.319876,149.5294 92.610876,149.7204 L 92.615876,147.8214 C 92.317876,147.9014 92.018876,147.9804 91.719876,148.0574 L 91.714876,149.9574 C 91.008876,150.1394 90.297876,150.3134 89.582876,150.4784"/>
          <path style="fill:#bababa;fill-opacity:1;stroke:none;stroke-width:0.25" id="path3367" d="M 95.335876,143.7894 C 95.304876,145.3484 93.248876,146.2864 92.463876,145.4294 C 91.669876,144.5634 92.806876,142.6464 94.416876,142.7494 C 94.632876,142.7634 95.335876,142.8794 95.335876,143.7894 M 91.434876,144.8814 C 91.404876,146.1014 89.860876,146.7774 89.190876,146.1154 C 88.536876,145.4694 89.315876,143.9884 90.585876,144.0074 C 90.673876,144.0094 91.436876,144.0444 91.434876,144.8814 M 88.149876,145.6714 C 88.185876,147.6764 90.314876,147.5884 91.273876,146.6214 C 91.590876,146.3014 91.736876,145.9244 91.798876,145.7634 C 92.361876,147.4454 94.889876,146.6304 95.777876,144.8904 C 96.595876,143.2874 95.896876,141.2794 93.706876,141.9704 C 92.768876,142.2664 92.128876,142.8834 91.804876,143.8044 C 91.047876,142.2864 88.742876,143.4814 88.270876,144.9084 C 88.216876,145.0734 88.151876,145.3384 88.149876,145.6714"/>
          <path style="fill:#bababa;fill-opacity:1;stroke:none;stroke-width:0.25" id="path3369" d="M 88.321876,138.1704 L 88.311876,141.6404 L 92.349876,141.3524 C 92.386876,141.1004 92.436876,140.7644 92.473876,140.5134 C 91.267876,140.1124 91.541876,138.3674 92.918876,137.6854 C 94.437876,136.9324 95.694876,137.5474 95.278876,138.8414 C 95.007876,139.6834 94.172876,140.0494 93.896876,140.1694 C 93.921876,140.4354 93.957876,140.7884 93.982876,141.0544 C 96.335876,140.1194 96.800876,137.3034 95.195876,136.6124 C 93.162876,135.7364 90.218876,138.1584 90.996876,140.0674 C 91.110876,140.3474 91.274876,140.5244 91.362876,140.6194 L 89.244876,140.7534 L 89.252876,137.9654 C 88.943876,138.0344 88.633876,138.1034 88.321876,138.1704"/>
          <path style="fill:#bababa;fill-opacity:1;stroke:none;stroke-width:0.25" id="path3371" d="M 90.485876,135.0144 C 90.463876,135.8324 89.327876,136.4004 88.820876,135.8464 C 88.350876,135.3314 89.034876,134.3714 89.851876,134.4004 C 90.157876,134.4104 90.486876,134.6074 90.485876,135.0144 M 88.078876,135.5684 C 88.107876,136.8114 89.724876,136.8984 90.584876,135.9774 C 91.538876,134.9544 91.021876,133.8424 89.950876,133.8614 C 88.990876,133.8774 88.080876,134.7064 88.078876,135.5684"/>
          <path style="fill:#bababa;fill-opacity:1;stroke:none;stroke-width:0.25" id="path3373" d="M 88.094876,129.7944 C 88.144876,133.5294 92.989876,132.6214 95.024876,130.4954 C 96.544876,128.9074 96.922876,125.4784 93.753876,125.5504 C 93.707876,125.5514 93.646876,125.5544 93.600876,125.5564 C 93.522876,125.8554 93.417876,126.2544 93.339876,126.5534 C 96.087876,126.3854 95.344876,128.9234 94.597876,129.7944 C 93.246876,131.3704 89.181876,132.3504 89.008876,129.8064 C 88.919876,128.4904 89.790876,127.8284 90.654876,127.3564 C 90.583876,127.1004 90.488876,126.7604 90.418876,126.5044 C 88.504876,127.4904 88.097876,128.8374 88.094876,129.7944"/>
          <path style="fill:#bababa;fill-opacity:1;stroke:none;stroke-width:0.25" id="path3375" d="M 100.59588,150.1634 L 100.59288,151.1094 C 105.30688,150.8454 105.79988,150.8174 106.78088,150.5944 C 106.41088,150.8984 106.04488,151.2074 105.68088,151.5194 C 104.16288,152.7494 102.14288,154.3964 100.57988,155.5704 L 100.57688,156.5684 C 102.69888,154.8584 105.47588,152.5134 107.50788,150.6974 L 107.51088,149.7364 C 105.44088,149.9174 102.67388,150.0914 100.59588,150.1634"/>
          <path style="fill:#bababa;fill-opacity:1;stroke:none;stroke-width:0.25" id="path3377" d="M 100.61288,144.2574 L 100.59788,149.3134 C 103.00788,148.3734 105.32388,147.3184 107.52088,146.1494 L 107.53688,140.9254 C 107.27588,141.0644 107.01488,141.2004 106.75188,141.3354 L 106.73888,145.6274 C 105.98388,146.0144 105.21688,146.3894 104.43488,146.7494 L 104.44688,142.8834 C 104.17488,143.0094 103.89988,143.1334 103.62488,143.2564 L 103.61388,147.1234 C 102.90288,147.4394 102.18188,147.7464 101.45288,148.0424 L 101.46388,143.9194 C 101.18088,144.0334 100.89788,144.1474 100.61288,144.2574"/>
          <path style="fill:#bababa;fill-opacity:1;stroke:none;stroke-width:0.25" id="path3379" d="M 100.63288,137.3024 L 100.62988,138.1984 C 102.52388,137.4604 104.35788,136.6504 106.12188,135.7714 C 104.49488,137.6214 102.30888,140.0744 100.61988,141.8664 L 100.61688,142.8204 C 103.02688,141.8804 105.34288,140.8254 107.53988,139.6564 L 107.54288,138.7614 C 105.81888,139.6784 104.02188,140.5244 102.16488,141.3004 C 103.80688,139.4594 105.97788,136.9904 107.55288,135.0934 L 107.55588,134.1394 C 105.35788,135.3084 103.04288,136.3624 100.63288,137.3024"/>
          <path style="fill:#bababa;fill-opacity:1;stroke:none;stroke-width:0.25" id="path3381" d="M 100.65088,130.7144 L 100.63488,136.2684 C 100.91988,136.1574 101.20388,136.0444 101.48688,135.9294 L 101.49288,133.6264 C 103.59788,132.7724 105.62788,131.8314 107.56488,130.8014 L 107.56788,129.8694 C 105.62988,130.8994 103.59988,131.8414 101.49588,132.6944 L 101.50288,130.3754 C 101.21988,130.4904 100.93588,130.6034 100.65088,130.7144"/>
          <path style="fill:#3a3a3a;fill-opacity:1;stroke:none;stroke-width:0.25" id="path3726" d="M 17.561866,105.85641 L 17.649876,74.602412 C 19.785866,76.445412 22.259876,78.195412 25.075876,79.820412 C 25.830876,80.257412 26.600876,80.678412 27.386866,81.086412 L 27.297866,112.34041 C 26.513866,111.93241 25.742876,111.51041 24.986876,111.07441 C 22.171876,109.44841 19.696866,107.69941 17.561866,105.85641 M 15.030866,68.035412 L 15.025866,70.075412 L 14.924866,105.39241 L 14.918876,107.43141 C 15.322876,107.85541 15.743876,108.27541 16.181866,108.69041 C 18.605876,110.99041 21.536876,113.16041 24.975876,115.14541 C 26.353876,115.94141 27.783876,116.68941 29.256866,117.39041 C 29.920876,117.70641 30.593876,118.01241 31.276876,118.30941 L 31.281876,116.27041 L 31.382876,80.952412 L 31.388866,78.913412 C 30.706876,78.616412 30.033876,78.310412 29.368876,77.994412 C 27.894876,77.293412 26.465866,76.545412 25.087876,75.749412 C 21.649876,73.764412 18.717876,71.594412 16.294866,69.294412 C 15.856876,68.879412 15.435876,68.459412 15.030866,68.035412"/>
        </g>
      </g>
    </g>
  </g>
</svg>