<?xml version="1.0" encoding="UTF-8"?>
<!DOCTYPE svg  PUBLIC '-//W3C//DTD SVG 1.1//EN'  'http://www.w3.org/Graphics/SVG/1.1/DTD/svg11.dtd'>
<svg enable-background="new 0 0 800 800" version="1.1" viewBox="0 0 800 800" xml:space="preserve" xmlns="http://www.w3.org/2000/svg">
	<rect x="371.8" y="451.9" width="2.8" height="129.1" fill="#6B6F72"/>
	<rect x="428.7" y="451.9" width="2.8" height="129.1" fill="#6B6F72"/>
	<path d="m453.1 234.9c0 1.7-1.5 3.3-4.1 4.7-4.8 2.7-13.5 4.8-24.4 6.2-7.5 0.9-16 1.4-25 1.4-29.6 0-53.5-5.5-53.5-12.4 0-6.8 24-12.4 53.5-12.4 29.5 0.1 53.5 5.6 53.5 12.5z" fill="#C2C3D3"/>
	<path d="m453.1 234.9c0 1.7-1.5 3.3-4.1 4.7-4.8 2.7-13.5 4.8-24.4 6.2-7.5 0.9-16 1.4-25 1.4-29.6 0-53.5-5.5-53.5-12.4 0-6.8 24-12.4 53.5-12.4 29.5 0.1 53.5 5.6 53.5 12.5z" fill="#ED1C24" opacity=".5"/>
	<linearGradient id="p" x1="331.1" x2="424.75" y1="457.87" y2="457.87" gradientUnits="userSpaceOnUse">
		<stop stop-color="#58595B" offset="0"/>
		<stop stop-color="#231F20" offset=".2688"/>
		<stop stop-color="#231F20" offset=".3495"/>
		<stop stop-color="#231F20" offset=".6505"/>
	</linearGradient>
	<path d="m331.1 445.5c-0.1 0.8 0 1.5 0.1 2.3 0.1 0.2 0.2 0.4 0.3 0.5-0.3-0.8-0.4-1.8-0.4-2.8zm90.6 24.7h2.7c0.1-0.2 0.1-0.4 0.1-0.7-0.5 0.4-1.6 0.6-2.8 0.7zm2.7-6.5c-0.4-0.4-0.7-0.9-1-1.4 0.3 0.8 0.6 1.5 0.8 2.3 0.1 0.4 0.3 1 0.5 1.7 0-1.5-0.3-2.6-0.3-2.6z" fill="url(#p)"/>
	<linearGradient id="q" x1="328.7" x2="471.3" y1="345.2" y2="345.2" gradientUnits="userSpaceOnUse">
		<stop stop-color="#58595B" offset="0"/>
		<stop stop-color="#231F20" offset=".2688"/>
		<stop stop-color="#231F20" offset=".3495"/>
		<stop stop-color="#231F20" offset=".6505"/>
	</linearGradient>
	<path d="m471.2 250.3c-0.1 1.1-0.2 2.3-0.4 3.6v0.2c-0.2 17.1-0.5 34.2-0.7 51.3-0.3 19.7-0.6 39.4-0.8 59.1-0.1 8.2-0.2 16.5-0.4 24.8-0.2 11.7 0.4 23.3-2.8 34.7-1.2 4.2-2.7 8.7-1 12.7 0.7 1.6 1.8 3 2.6 4.5 1 2 1.4 4.4 1.1 6.6-1.9 3.6-4.8 6.7-8.2 9.4-0.1 0.1-0.2 0.1-0.3 0.2-7.1-13.5-1.7-33.6 0.1-39.4 0.4-1.2 0.6-2.4 0.5-3.6l-0.3-164.1c2.2-6.4-7.9-9.7-11.4-10.7-0.1 0-0.2 0-0.2-0.1 2.5-1.4 4-3 4.1-4.6v-0.2c0-6.8-24-12.4-53.5-12.4-10.2 0-19.8 0.7-27.9 1.8-15.4 2.2-25.7 6.1-25.7 10.5v0.2c0.3 6.1 19.9 11.2 45.4 12.1 0.9 0 1.8 0.1 2.7 0.1 1.8 0 3.6 0.1 5.5 0.1s3.8 0 5.7-0.1c0.8 0 1.7 0 2.5-0.1h0.2c6-0.2 11.6-0.7 16.7-1.3 0.9 1.5 3.9 6.9 1.4 11.3v3.9l-1.1 161.4s-5.7 20.5-3.6 33.4v0.1c0 0.2 0 0.3 0.1 0.5 0.4 2.3 1.1 4.3 2.1 5.9 0.3 0.8 0.6 1.5 0.8 2.3 0.1 0.4 0.3 1 0.5 1.7 0.1 1 0 2.1-0.2 3.2-0.6 0.4-1.7 0.6-2.9 0.7-1.9 0.2-4 0.2-4.9 0.3-12.1 1.3-24.4 1.3-36.4-0.3-11.9-1.6-23.5-4.6-34.6-9.4-1.4-0.6-2.8-1.3-4.3-2.1l-0.9-0.6c-0.4-0.3-0.8-0.5-1.2-0.7-3.2-2.6-5.9-5.5-7.9-8.9-0.3-0.9-0.4-1.8-0.4-2.8 0.1-1.1 0.3-2.2 0.7-3.3 0.1-0.2 0.1-0.3 0.2-0.4l0.3-0.6c0.8-1.6 1.9-2.9 2.6-4.5 0-0.1 0-0.1 0.1-0.2 1.6-4 0.1-8.4-1.1-12.5-3.2-11.4-2.6-23-2.8-34.7-0.1-8.2-0.2-16.5-0.4-24.8-0.3-19.7-0.6-39.4-0.8-59.1-0.2-17.1-0.5-34.2-0.7-51.3v-0.2c-0.2-1.3-0.3-2.4-0.4-3.6-0.4-5.3 0.4-9.5 2-12.9 1.7-3.6 4.5-6.3 7.9-8.4 7.1-4.4 17.3-6.2 27.9-8 8.1-1.4 16.4-2.1 24.6-2.1h17.6c8.2 0 16.5 0.7 24.6 2.1 10.6 1.8 20.8 3.6 27.9 8 2.9 1.8 5.3 4 7.1 6.9 2.1 3.7 3.1 8.4 2.7 14.4z" fill="url(#q)"/>
	<linearGradient id="r" x1="331.13" x2="331.83" y1="443.89" y2="443.89" gradientUnits="userSpaceOnUse">
		<stop stop-color="#58595B" offset="0"/>
		<stop stop-color="#231F20" offset=".2688"/>
		<stop stop-color="#231F20" offset=".3495"/>
		<stop stop-color="#231F20" offset=".6505"/>
	</linearGradient>
	<path d="m331.8 442.2c-0.4 1.1-0.6 2.2-0.7 3.3 0-1 0.3-2.1 0.7-3.3z" fill="url(#r)"/>
	<linearGradient id="s" x1="334.87" x2="334.94" y1="436.63" y2="436.63" gradientUnits="userSpaceOnUse">
		<stop stop-color="#58595B" offset="0"/>
		<stop stop-color="#231F20" offset=".2688"/>
		<stop stop-color="#231F20" offset=".3495"/>
		<stop stop-color="#231F20" offset=".6505"/>
	</linearGradient>
	<path d="m334.9 436.5c0 0.1 0 0.1-0.1 0.2 0.1 0 0.1-0.1 0.1-0.2z" fill="url(#s)"/>
	<linearGradient id="t" x1="331.49" x2="341.48" y1="453.49" y2="453.49" gradientUnits="userSpaceOnUse">
		<stop stop-color="#58595B" offset="0"/>
		<stop stop-color="#231F20" offset=".2688"/>
		<stop stop-color="#231F20" offset=".3495"/>
		<stop stop-color="#231F20" offset=".6505"/>
	</linearGradient>
	<path d="m341.5 458.6c-4.3-2.4-8.7-5.9-10-10.3 1.9 3.4 4.7 6.3 7.9 8.9 0.4 0.2 0.8 0.5 1.2 0.7 0.3 0.3 0.6 0.5 0.9 0.7z" fill="url(#t)"/>
	<linearGradient id="u" x1="421.32" x2="423.4" y1="459.37" y2="459.37" gradientUnits="userSpaceOnUse">
		<stop stop-color="#58595B" offset="0"/>
		<stop stop-color="#231F20" offset=".2688"/>
		<stop stop-color="#231F20" offset=".3495"/>
		<stop stop-color="#231F20" offset=".6505"/>
	</linearGradient>
	<path d="m423.4 462.3c-1-1.6-1.7-3.6-2.1-5.9 0.4 2 1.3 4 2.1 5.9z" fill="url(#u)"/>
	<linearGradient id="v" x1="424.59" x2="425.13" y1="467.92" y2="467.92" gradientUnits="userSpaceOnUse">
		<stop stop-color="#58595B" offset="0"/>
		<stop stop-color="#231F20" offset=".2688"/>
		<stop stop-color="#231F20" offset=".3495"/>
		<stop stop-color="#231F20" offset=".6505"/>
	</linearGradient>
	<path d="m424.9 469.3l-0.3 0.3c0.2-1.1 0.2-2.2 0.2-3.2 0.3 1 0.5 2.3 0.1 2.9z" fill="url(#v)"/>
	<linearGradient id="w" x1="331.12" x2="425.13" y1="454.05" y2="454.05" gradientUnits="userSpaceOnUse">
		<stop stop-color="#fff" stop-opacity="0" offset=".069892"/>
		<stop stop-color="#fff" stop-opacity=".1" offset=".2957"/>
		<stop stop-color="#fff" stop-opacity="0" offset=".5215"/>
		<stop stop-color="#fff" stop-opacity=".2" offset=".7312"/>
		<stop stop-color="#fff" stop-opacity="0" offset=".9516"/>
	</linearGradient>
	<path d="m424.9 469.3l-0.3 0.3c-0.6 0.4-1.7 0.6-2.9 0.7-1.9 0.2-4 0.2-4.9 0.3-12.1 1.3-24.4 1.3-36.4-0.3-11.9-1.6-23.5-4.6-34.6-9.4-1.4-0.6-2.8-1.3-4.3-2.1-4.3-2.4-8.7-5.9-10-10.3-0.3-0.9-0.4-1.8-0.4-2.8 0.1-3.3 2.2-6.1 3.7-8.9-0.5 0.8 17.5 9.6 19.1 10.3 6.8 3 13.9 5.4 21.1 7.1 15.1 3.7 30.9 4.7 46.2 1.7v0.1c0 0.2 0.1 0.3 0.1 0.5 0.4 2 1.3 4 2.1 5.9 0.3 0.8 0.6 1.5 0.8 2.3 0.1 0.4 0.3 1 0.5 1.7 0.4 1 0.6 2.3 0.2 2.9z" fill="url(#w)"/>
	<path d="m459.2 455.1c0.3 0.8 0.7 1.6 1.1 2.3-0.3 0.2-0.6 0.3-0.9 0.5-3.1 2.1-6 4.1-9.3 5.8l-1.2 0.6-0.6 0.3s-0.1 0-0.1 0.1c-0.3 0.1-0.6 0.3-1 0.4-2.3 1-4.7 1.9-7.1 2.6-0.3 0.1-0.6 0.2-1 0.3-0.2 0.1-0.5 0.1-0.7 0.2l-1.2 0.3c-3.7 0.9-7.5 1.4-11.3 1.6h-1.4c-0.3-1.6 0.3-3.5 0-5.2-0.1-0.5-0.2-1-0.4-1.5-0.9-2.2-2.2-3.7-2.7-6.1-0.6-3-0.8-6-0.7-9 0.1-6.9 1.2-13.8 2.8-20.5 0.4-1.7 0.8-3.4 1.1-5.2 0.6-4.3 0.3-8.8 0.3-13.1 0.1-10.7 0.2-21.4 0.2-32.1 0.1-13.8 0.2-27.5 0.3-41.3 0.1-13.5 0.2-26.9 0.3-40.4 0.1-11.7 0.2-23.5 0.2-35.2 0-1 0-2.1 0.2-3.1 0.1-0.8 0.4-1.7 0.6-2.5 0.6-3.3-0.4-6.4-2.1-9.2 5-0.6 10.1-1.4 15-2.7 1.9-0.5 3.8-1.1 5.7-1.8 1.6-0.6 3.2-1.9 5-1.3 3.4 1 8.9 3 10.3 6.7 0.5 1.2 0.4 2.6 0.3 3.9-0.7 12.7-0.1 25.5-0.1 38.2 0 12.2 0.1 24.4 0.1 36.6 0 12.7 0 25.5 0.1 38.2 0 10.7 0 21.5 0.1 32.2v19.2c0 2.5-1.2 5.1-1.8 7.5-0.8 3.1-1.4 6.3-1.8 9.6-1.2 7.6-1.2 15.9 1.7 23.1z" fill="#9EAEC3"/>
	<linearGradient id="x" x1="406.54" x2="395.31" y1="168.16" y2="274.88" gradientUnits="userSpaceOnUse">
		<stop stop-color="#C3C6D1" offset=".069892"/>
		<stop stop-color="#C3C6D1" offset=".5215"/>
		<stop stop-color="#D1D3D4" offset=".5968"/>
		<stop stop-color="#C3C6D1" offset=".6613"/>
		<stop stop-color="#231F20" offset=".9086"/>
	</linearGradient>
	<path d="m453.1 234.9c0 1.7-1.5 3.3-4.1 4.7-4.8 2.7-13.5 4.8-24.4 6.2-7.5 0.9-16 1.4-25 1.4-29.6 0-53.5-5.5-53.5-12.4 0-6.8 24-12.4 53.5-12.4 29.5 0.1 53.5 5.6 53.5 12.5z" fill="url(#x)"/>
		<path d="m371.6 224.2s1.1 0.2 3 0.6c0.9 0.2 2.1 0.5 3.4 0.8s2.8 0.7 4.4 1.1 3.3 0.9 5.2 1.4c1.8 0.5 3.7 1.2 5.7 1.8s4 1.3 6.1 1.8c1 0.3 2.1 0.6 3.2 0.8 1.1 0.3 2.1 0.5 3.2 0.8 2.1 0.5 4.3 1 6.4 1.6 2.1 0.5 4.2 1.1 6.2 1.6 4 1.1 7.7 2.1 10.9 3.1 3.2 0.9 5.8 1.8 7.6 2.4s2.9 1 2.9 1v0.1s-1.1-0.2-3-0.6-4.6-1-7.8-1.9c-3.2-0.8-6.9-1.8-10.9-2.9-2-0.6-4-1.2-6.1-1.8s-4.2-1.3-6.3-1.9c-1.1-0.3-2.1-0.7-3.2-1s-2.1-0.6-3.1-0.9c-2.1-0.6-4.2-1.1-6.2-1.6s-4-0.9-5.8-1.4-3.5-1-5.1-1.4c-1.6-0.5-3-0.9-4.3-1.3s-2.4-0.7-3.3-1.1c-1.8-0.6-2.9-1-2.9-1l-0.2-0.1z" fill="#BCBEC0"/>
		<path d="m367 244.6s1-0.4 2.6-1c0.8-0.3 1.9-0.7 3.1-1.1s2.5-0.9 4-1.4 3-1 4.7-1.5 3.5-1 5.4-1.5 3.8-1.1 5.7-1.7c1-0.3 1.9-0.6 2.9-1 1-0.3 1.9-0.7 2.9-1 1.9-0.7 3.9-1.4 5.8-2.1 1.9-0.6 3.8-1.3 5.6-1.9 3.7-1.2 7.1-2.3 10.1-3.1 3-0.9 5.5-1.5 7.2-2 1.8-0.4 2.8-0.7 2.8-0.7v0.1s-1 0.4-2.6 1c-1.7 0.6-4.1 1.5-7 2.5s-6.3 2.2-10 3.3c-1.8 0.6-3.8 1.1-5.7 1.7s-3.9 1.1-5.9 1.7c-1 0.3-2 0.6-3 0.8-1 0.3-2 0.6-2.9 0.9-1.9 0.6-3.8 1.3-5.6 1.9-1.8 0.7-3.6 1.3-5.2 1.9-1.7 0.6-3.3 1-4.8 1.5-1.5 0.4-2.8 0.9-4 1.2s-2.3 0.6-3.1 0.9c-1.7 0.5-2.8 0.7-2.8 0.7l-0.2-0.1z" fill="#BCBEC0"/>
	<path d="m443.7 315.7c-2.2 0-4-1.8-4-4v-14.6c0-2.2 1.8-4 4-4s4 1.8 4 4v14.6c0 2.2-1.8 4-4 4z" fill="none" stroke="#414042" stroke-miterlimit="10" stroke-width=".9773"/>
	<path d="m443.7 395.3c-2.2 0-4-1.8-4-4v-14.6c0-2.2 1.8-4 4-4s4 1.8 4 4v14.6c0 2.1-1.8 4-4 4z" fill="none" stroke="#414042" stroke-miterlimit="10" stroke-width=".9773"/>
	<path d="m443.7 454.1c-2.5 0-4.5 2-4.5 4.5v9.3c0.3-0.1 0.7-0.2 1-0.3v-9.1c0-2 1.6-3.5 3.5-3.5 2 0 3.5 1.6 3.5 3.5v6.5c0.3-0.1 0.7-0.3 1-0.4v-6.1c0-2.3-2-4.4-4.5-4.4z" fill="#414042"/>
		<linearGradient id="m" x1="426.78" x2="429.8" y1="225.08" y2="225.08" gradientUnits="userSpaceOnUse">
			<stop stop-color="#fff" stop-opacity="0" offset=".069892"/>
			<stop stop-color="#fff" stop-opacity=".1" offset=".2957"/>
			<stop stop-color="#fff" stop-opacity="0" offset=".5215"/>
			<stop stop-color="#fff" stop-opacity=".2" offset=".7312"/>
			<stop stop-color="#fff" stop-opacity="0" offset=".9516"/>
		</linearGradient>
		<path d="m426.8 224.9c1 0.1 2 0.3 3 0.4-1-0.1-2-0.3-3-0.4z" fill="url(#m)"/>
		<linearGradient id="n" x1="438.42" x2="440.1" y1="227.23" y2="227.23" gradientUnits="userSpaceOnUse">
			<stop stop-color="#fff" stop-opacity="0" offset=".069892"/>
			<stop stop-color="#fff" stop-opacity=".1" offset=".2957"/>
			<stop stop-color="#fff" stop-opacity="0" offset=".5215"/>
			<stop stop-color="#fff" stop-opacity=".2" offset=".7312"/>
			<stop stop-color="#fff" stop-opacity="0" offset=".9516"/>
		</linearGradient>
		<path d="m438.4 227c0.6 0.1 1.1 0.3 1.7 0.4-0.5-0.1-1.1-0.3-1.7-0.4z" fill="url(#n)"/>
		<linearGradient id="o" x1="330.32" x2="467.83" y1="238.31" y2="238.31" gradientUnits="userSpaceOnUse">
			<stop stop-color="#fff" stop-opacity="0" offset=".069892"/>
			<stop stop-color="#fff" stop-opacity=".1" offset=".2957"/>
			<stop stop-color="#fff" stop-opacity="0" offset=".5215"/>
			<stop stop-color="#fff" stop-opacity=".2" offset=".7312"/>
			<stop stop-color="#fff" stop-opacity="0" offset=".9516"/>
		</linearGradient>
		<path d="m460.8 229c-7.1-4.4-17.3-6.2-27.9-8-8.1-1.4-16.4-2.1-24.6-2.1h-17.6c-8.2 0-16.5 0.7-24.6 2.1-10.6 1.8-20.8 3.6-27.9 8-3.4 2.1-6.1 4.8-7.9 8.4 0.6 4.5 2.7 6.2 11.7 11 4 2.1 9 3.8 15.3 5.2 11.2 2.5 25.8 3.9 41.2 3.9 9.3 0 18.3-0.5 26.4-1.5 5.4-0.6 10.3-1.4 14.8-2.4 6.3-1.4 11.3-3.1 15.3-5.2 1.8-0.9 3.3-2 4.6-3 6.2-4.9 8-5.9 8.1-9.6-1.6-2.7-4-5-6.9-6.8zm-8.3 6.8c0 0.1-0.1 0.2-0.1 0.3-0.1 0.2-0.1 0.4-0.2 0.5 0 0.1-0.1 0.2-0.1 0.3s-0.1 0.1-0.1 0.2-0.1 0.1-0.1 0.2c-0.1 0.1-0.1 0.2-0.2 0.3l-0.3 0.3-0.3 0.3-0.3 0.3c-0.1 0.1-0.3 0.2-0.4 0.3s-0.2 0.2-0.4 0.2c-0.1 0.1-0.3 0.2-0.4 0.3s-0.3 0.2-0.5 0.3l-0.1 0.1c-2.7 1.5-6.8 2.9-11.8 4-0.6 0.1-1.2 0.3-1.9 0.4-0.3 0.1-0.5 0.1-0.8 0.2-0.2 0-0.3 0.1-0.5 0.1-1.2 0.2-2.4 0.4-3.7 0.6-0.9 0.2-1.9 0.3-2.9 0.4s-2 0.3-3.1 0.4c-2.5 0.3-5.1 0.6-7.9 0.8-0.3 0-0.5 0-0.8 0.1-0.6 0-1.3 0.1-1.9 0.1s-1.1 0.1-1.7 0.1-1.3 0.1-1.9 0.1h-0.3c-0.7 0-1.5 0.1-2.2 0.1h-8.4c-1.8 0-3.7 0-5.5-0.1-0.9 0-1.8 0-2.7-0.1-0.8 0-1.5-0.1-2.3-0.1h-0.4c-0.7 0-1.4-0.1-2.1-0.1-0.4 0-0.8 0-1.2-0.1-0.4 0-0.9-0.1-1.3-0.1-0.3 0-0.7 0-1-0.1-4.2-0.3-8.1-0.7-11.7-1.2-1.3-0.2-2.6-0.4-3.9-0.6-0.4-0.1-0.7-0.1-1.1-0.2-0.7-0.1-1.3-0.2-2-0.4-2.5-0.5-4.9-1-6.9-1.6-0.1 0-0.2-0.1-0.3-0.1-0.4-0.1-0.8-0.2-1.1-0.3-0.1 0-0.2-0.1-0.3-0.1-0.5-0.2-1-0.3-1.4-0.5-0.2-0.1-0.5-0.2-0.7-0.2-0.2-0.1-0.4-0.2-0.7-0.2-0.2-0.1-0.4-0.1-0.6-0.2h-0.1c-0.2-0.1-0.4-0.2-0.6-0.2-0.6-0.3-1.1-0.5-1.6-0.8-0.2-0.1-0.3-0.2-0.5-0.3-0.1-0.1-0.3-0.2-0.4-0.2-0.2-0.1-0.3-0.2-0.5-0.3-0.1-0.1-0.3-0.2-0.4-0.3-0.3-0.2-0.5-0.4-0.8-0.6l-0.3-0.3-0.3-0.3-0.3-0.3c-0.1-0.1-0.1-0.2-0.2-0.3s-0.2-0.2-0.2-0.4c0-0.1-0.1-0.1-0.1-0.2-0.1-0.1-0.1-0.2-0.1-0.4 0-0.1-0.1-0.2-0.1-0.2 0-0.1-0.1-0.2-0.1-0.4v-0.5c0-0.2 0-0.3 0.1-0.5 0-0.1 0.1-0.2 0.1-0.3s0.1-0.2 0.1-0.3 0.1-0.2 0.1-0.2c0-0.1 0.1-0.1 0.1-0.2 0.2-0.3 0.4-0.6 0.7-0.9l0.3-0.3c0.2-0.2 0.4-0.4 0.6-0.5 0.2-0.2 0.5-0.4 0.8-0.6 0.1-0.1 0.2-0.2 0.4-0.2 1.4-0.8 3.1-1.7 5.3-2.4 0.1 0 0.3-0.1 0.4-0.1 0.2-0.1 0.4-0.2 0.7-0.2 0.3-0.1 0.6-0.2 0.9-0.3 0.6-0.2 1.2-0.4 1.8-0.5 0.2-0.1 0.5-0.1 0.7-0.2 0.3-0.1 0.6-0.2 1-0.3 0.3-0.1 0.7-0.2 1-0.2l1.2-0.3c0.8-0.2 1.6-0.3 2.4-0.5l1.5-0.3c0.4-0.1 0.9-0.2 1.3-0.2 0.4-0.1 0.8-0.1 1.2-0.2 1.5-0.2 3-0.4 4.5-0.6 0.3 0 0.6-0.1 1-0.1s0.8-0.1 1.1-0.1c0.4 0 0.8-0.1 1.2-0.1 0.8-0.1 1.5-0.2 2.3-0.2 2.3-0.2 4.6-0.4 7-0.5 1-0.1 2.1-0.1 3.1-0.2 1.2-0.1 2.5-0.1 3.7-0.1h11.4c0.8 0 1.5 0 2.3 0.1h0.7c0.6 0 1.1 0 1.6 0.1 0.8 0 1.5 0.1 2.3 0.1 1.1 0.1 2.3 0.1 3.4 0.2 0.5 0 0.9 0.1 1.4 0.1 0.7 0.1 1.5 0.1 2.2 0.2 2.5 0.2 4.9 0.4 7.3 0.7 0.3 0 0.6 0.1 1 0.1 0.5 0.1 1 0.1 1.5 0.2 1 0.1 2 0.3 3 0.4 0.7 0.1 1.4 0.2 2.1 0.3h0.2l1.8 0.3c0.3 0.1 0.6 0.1 1 0.2 0.3 0.1 0.6 0.1 0.9 0.2s0.6 0.1 0.9 0.2c0.6 0.1 1.2 0.3 1.8 0.4s1.1 0.3 1.7 0.4 1.1 0.3 1.6 0.4c0.3 0.1 0.5 0.2 0.8 0.2 0.3 0.1 0.5 0.2 0.7 0.2 0.2 0.1 0.5 0.2 0.7 0.2 0.2 0.1 0.5 0.2 0.7 0.2 0.2 0.1 0.4 0.1 0.6 0.2s0.5 0.2 0.7 0.3l0.6 0.3c0.6 0.3 1.2 0.5 1.7 0.8 0.2 0.1 0.3 0.2 0.5 0.3s0.3 0.2 0.4 0.3c0.3 0.2 0.7 0.4 1 0.6 0.1 0.1 0.2 0.1 0.3 0.2 0.2 0.1 0.4 0.3 0.5 0.4s0.2 0.2 0.3 0.2l0.1 0.1 0.2 0.2c0.2 0.2 0.3 0.3 0.4 0.5 0.1 0.1 0.1 0.1 0.1 0.2 0 0 0 0.1 0.1 0.1 0.1 0.1 0.1 0.2 0.1 0.3s0.1 0.2 0.1 0.2c0 0.1 0.1 0.2 0.1 0.2 0 0.1 0 0.1 0.1 0.2v0.7c-0.3 0.5-0.4 0.7-0.4 0.9z" fill="url(#o)"/>
</svg>
